<?xml version="1.0" standalone="no"?>
<!DOCTYPE svg PUBLIC "-//W3C//DTD SVG 1.1//EN" "http://www.w3.org/Graphics/SVG/1.1/DTD/svg11.dtd" >
<svg xmlns="http://www.w3.org/2000/svg" xmlns:xlink="http://www.w3.org/1999/xlink" version="1.1" viewBox="-10 0 1024 1000">
   <path fill="currentColor"
d="M506.864 508.475h0.271484c0.647461 0.293945 51.5332 23.3086 85.0215 35.2939c13.8984 4.97266 53.7939 12.9893 90.2783 33.624c36.4863 20.6348 71.8701 58.0195 74.373 116.751c2.07227 48.6562 -9.22559 97.8379 -22.6221 137.886
c6.12891 9.23535 10.041 19.8564 10.041 31.5078c0 19.2285 -10.6445 35.6631 -24.3467 47.6631c-13.7041 12.001 -31.2275 21.1855 -51.8779 28.8359c-41.3008 15.2998 -95.5137 24.0449 -155.363 24.0449c-1.85742 0 -3.70801 -0.00976562 -5.55566 -0.0273438
c-0.0546875 -0.000976562 -0.111328 0.00195312 -0.167969 0c-1.84766 0.0175781 -3.69824 0.0273438 -5.55664 0.0273438c-59.8516 0 -114.062 -8.74512 -155.362 -24.0449c-20.6514 -7.65039 -38.1748 -16.835 -51.8779 -28.8359
c-13.7021 -12 -24.3457 -28.4346 -24.3457 -47.6631c0 -11.6514 3.91016 -22.2725 10.04 -31.5078c-13.3965 -40.0479 -24.6943 -89.2295 -22.6211 -137.886c2.50098 -58.7314 37.8848 -96.1162 74.3701 -116.751c36.4863 -20.6348 76.3828 -28.6514 90.2783 -33.624
c33.4912 -11.9854 84.376 -35 85.0234 -35.2939zM506.999 553.785c-18.2334 8.00977 -47.6807 20.6064 -71.3389 29.0713c-21.4131 7.66309 -54.8154 14.2588 -83.8916 30.7012c-13.2822 7.51367 -25.1689 16.2266 -34.3545 27.6377
c0.802734 2.85645 3.11523 6.66602 8.87695 11.7109c7.72168 6.76367 20.9541 14.3057 38.2041 20.6943c34.4961 12.7793 84.6982 21.3213 140.175 21.3213c0.751953 0 1.49805 -0.00683594 2.24609 -0.0107422h0.167969
c0.748047 0.00390625 1.49414 0.0107422 2.24512 0.0107422c55.4775 0 105.677 -8.54199 140.176 -21.3213c17.25 -6.38867 30.4824 -13.9307 38.2041 -20.6943c5.7627 -5.04492 8.07422 -8.85449 8.87598 -11.7109c-9.18359 -11.4111 -21.0713 -20.124 -34.3535 -27.6377
c-29.0771 -16.4424 -62.4785 -23.0381 -83.8906 -30.7012c-23.6592 -8.46484 -53.1064 -21.0615 -71.3418 -29.0713zM299.383 684.669c-0.487305 3.58594 -0.826172 7.32812 -0.994141 11.251c-1.49121 35.0469 5.98242 72.5176 15.8877 105.695l0.102539 0.486328
c8.20215 5.66992 18.0322 11.168 29.3301 16.1748c40.1162 17.7783 97.8789 29.4805 161.779 29.4805c0.475586 0 0.951172 -0.00488281 1.42773 -0.00683594v-0.000976562h0.0830078h0.0849609v0.000976562c0.475586 0.00195312 0.952148 0.00683594 1.42871 0.00683594
c63.9004 0 121.662 -11.7021 161.779 -29.4805c11.2949 -5.00684 21.127 -10.5049 29.3301 -16.1748l0.101562 -0.486328c9.90625 -33.1777 17.3799 -70.6484 15.8877 -105.695c-0.167969 -3.92285 -0.507812 -7.66504 -0.995117 -11.251
c-13.3213 11.5693 -30.4834 20.582 -50.7783 28.0977c-40.918 15.1592 -94.9053 23.8965 -154.509 23.8965c-0.750977 0 -1.49707 -0.00878906 -2.24512 -0.0126953h-0.167969c-0.748047 0.00488281 -1.49414 0.0126953 -2.24609 0.0126953
c-59.6035 0 -113.59 -8.7373 -154.509 -23.8965c-20.293 -7.51562 -37.4561 -16.5283 -50.7783 -28.0977zM324.581 851.018l0.0195312 0.0898438c-7.38574 6.46973 -8.40234 10.3438 -8.40234 12.4297c0 2.08789 1.0166 5.96289 8.40234 12.4307
c7.38574 6.4668 20.3779 13.917 37.4365 20.2354c34.1143 12.6377 84.0889 21.1689 139.322 21.1689c1.85938 0 3.70898 -0.0117188 5.55664 -0.03125v-0.00195312h0.0830078h0.0849609v0.00195312c1.84766 0.0195312 3.69727 0.03125 5.55566 0.03125
c55.2324 0 105.207 -8.53125 139.323 -21.1689c17.0576 -6.31836 30.0508 -13.7686 37.4365 -20.2354c7.38477 -6.46777 8.40234 -10.3428 8.40234 -12.4307c0 -2.08594 -1.01758 -5.95996 -8.40234 -12.4297l0.0175781 -0.0898438
c-1.31836 0.609375 -2.65137 1.21582 -3.99707 1.81152c-46.5615 20.6357 -108.542 32.6865 -176.907 32.6865c-0.505859 0 -1.00879 -0.00683594 -1.51367 -0.0078125c-0.503906 0.00195312 -1.00586 0.0078125 -1.51074 0.0078125
c-68.3652 0 -130.347 -12.0508 -176.907 -32.6865c-1.34668 -0.595703 -2.67871 -1.20215 -4 -1.81152zM506.864 508.475h0.271484c0.647461 0.293945 51.5332 23.3086 85.0215 35.2939c13.8984 4.97266 53.7939 12.9893 90.2783 33.624
c36.4863 20.6348 71.8701 58.0195 74.373 116.751c2.07227 48.6562 -9.22559 97.8379 -22.6221 137.886c6.12891 9.23535 10.041 19.8564 10.041 31.5078c0 19.2285 -10.6445 35.6631 -24.3467 47.6631c-13.7041 12.001 -31.2275 21.1855 -51.8779 28.8359
c-41.3008 15.2998 -95.5137 24.0449 -155.363 24.0449c-1.85742 0 -3.70801 -0.00976562 -5.55566 -0.0273438c-0.0546875 -0.000976562 -0.111328 0.00195312 -0.167969 0c-1.84766 0.0175781 -3.69824 0.0273438 -5.55664 0.0273438
c-59.8516 0 -114.062 -8.74512 -155.362 -24.0449c-20.6514 -7.65039 -38.1748 -16.835 -51.8779 -28.8359c-13.7021 -12 -24.3457 -28.4346 -24.3457 -47.6631c0 -11.6514 3.91016 -22.2725 10.04 -31.5078c-13.3965 -40.0479 -24.6943 -89.2295 -22.6211 -137.886
c2.50098 -58.7314 37.8848 -96.1162 74.3701 -116.751c36.4863 -20.6348 76.3828 -28.6514 90.2783 -33.624c33.4912 -11.9854 84.376 -35 85.0234 -35.2939zM506.999 553.785c-18.2334 8.00977 -47.6807 20.6064 -71.3389 29.0713
c-21.4131 7.66309 -54.8154 14.2588 -83.8916 30.7012c-13.2822 7.51367 -25.1689 16.2266 -34.3545 27.6377c0.802734 2.85645 3.11523 6.66602 8.87695 11.7109c7.72168 6.76367 20.9541 14.3057 38.2041 20.6943c34.4961 12.7793 84.6982 21.3213 140.175 21.3213
c0.751953 0 1.49805 -0.00683594 2.24609 -0.0107422h0.167969c0.748047 0.00390625 1.49414 0.0107422 2.24512 0.0107422c55.4775 0 105.677 -8.54199 140.176 -21.3213c17.25 -6.38867 30.4824 -13.9307 38.2041 -20.6943
c5.7627 -5.04492 8.07422 -8.85449 8.87598 -11.7109c-9.18359 -11.4111 -21.0713 -20.124 -34.3535 -27.6377c-29.0771 -16.4424 -62.4785 -23.0381 -83.8906 -30.7012c-23.6592 -8.46484 -53.1064 -21.0615 -71.3418 -29.0713zM299.383 684.669
c-0.487305 3.58594 -0.826172 7.32812 -0.994141 11.251c-1.49121 35.0469 5.98242 72.5176 15.8877 105.695l0.102539 0.486328c8.20215 5.66992 18.0322 11.168 29.3301 16.1748c40.1162 17.7783 97.8789 29.4805 161.779 29.4805
c0.475586 0 0.951172 -0.00488281 1.42773 -0.00683594v-0.000976562h0.0830078h0.0849609v0.000976562c0.475586 0.00195312 0.952148 0.00683594 1.42871 0.00683594c63.9004 0 121.662 -11.7021 161.779 -29.4805c11.2949 -5.00684 21.127 -10.5049 29.3301 -16.1748
l0.101562 -0.486328c9.90625 -33.1777 17.3799 -70.6484 15.8877 -105.695c-0.167969 -3.92285 -0.507812 -7.66504 -0.995117 -11.251c-13.3213 11.5693 -30.4834 20.582 -50.7783 28.0977c-40.918 15.1592 -94.9053 23.8965 -154.509 23.8965
c-0.750977 0 -1.49707 -0.00878906 -2.24512 -0.0126953h-0.167969c-0.748047 0.00488281 -1.49414 0.0126953 -2.24609 0.0126953c-59.6035 0 -113.59 -8.7373 -154.509 -23.8965c-20.293 -7.51562 -37.4561 -16.5283 -50.7783 -28.0977zM324.581 851.018
l0.0195312 0.0898438c-7.38574 6.46973 -8.40234 10.3438 -8.40234 12.4297c0 2.08789 1.0166 5.96289 8.40234 12.4307c7.38574 6.4668 20.3779 13.917 37.4365 20.2354c34.1143 12.6377 84.0889 21.1689 139.322 21.1689c1.85938 0 3.70898 -0.0117188 5.55664 -0.03125
v-0.00195312h0.0830078h0.0849609v0.00195312c1.84766 0.0195312 3.69727 0.03125 5.55566 0.03125c55.2324 0 105.207 -8.53125 139.323 -21.1689c17.0576 -6.31836 30.0508 -13.7686 37.4365 -20.2354c7.38477 -6.46777 8.40234 -10.3428 8.40234 -12.4307
c0 -2.08594 -1.01758 -5.95996 -8.40234 -12.4297l0.0175781 -0.0898438c-1.31836 0.609375 -2.65137 1.21582 -3.99707 1.81152c-46.5615 20.6357 -108.542 32.6865 -176.907 32.6865c-0.505859 0 -1.00879 -0.00683594 -1.51367 -0.0078125
c-0.503906 0.00195312 -1.00586 0.0078125 -1.51074 0.0078125c-68.3652 0 -130.347 -12.0508 -176.907 -32.6865c-1.34668 -0.595703 -2.67871 -1.20215 -4 -1.81152z" />
</svg>
