<?xml version="1.0" standalone="no"?>
<!DOCTYPE svg PUBLIC "-//W3C//DTD SVG 1.1//EN" "http://www.w3.org/Graphics/SVG/1.1/DTD/svg11.dtd" >
<svg xmlns="http://www.w3.org/2000/svg" xmlns:xlink="http://www.w3.org/1999/xlink" version="1.1" viewBox="-10 0 1024 1000">
   <path fill="currentColor"
d="M508.259 454.128h0.302734c0.723633 0.328125 57.5889 26.0469 95.0117 39.4414c15.5312 5.55664 60.1143 14.5146 100.886 37.5742c40.7734 23.0596 80.3154 64.8369 83.1123 130.47c2.31543 54.373 -10.3096 109.333 -25.2803 154.087
c6.84863 10.3203 11.2207 22.1895 11.2207 35.21c0 21.4883 -11.8955 39.8535 -27.207 53.2637c-15.3145 13.4111 -34.8975 23.6748 -57.9736 32.2236c-46.1543 17.0977 -106.736 26.8711 -173.619 26.8711c-2.0752 0 -4.14355 -0.0117188 -6.20801 -0.03125
c-0.0615234 -0.000976562 -0.124023 0.00195312 -0.1875 0c-2.06543 0.0195312 -4.13281 0.03125 -6.20996 0.03125c-66.8838 0 -127.464 -9.77344 -173.617 -26.8711c-23.0781 -8.54883 -42.6602 -18.8125 -57.9736 -32.2236
c-15.3125 -13.4102 -27.2061 -31.7754 -27.2061 -53.2637c0 -13.0205 4.36914 -24.8896 11.2197 -35.21c-14.9707 -44.7539 -27.5957 -99.7139 -25.2793 -154.087c2.79492 -65.6328 42.3359 -107.41 83.1084 -130.47c40.7734 -23.0596 85.3584 -32.0176 100.886 -37.5742
c37.4268 -13.3945 94.291 -39.1133 95.0146 -39.4414zM508.409 504.763c-20.376 8.9502 -53.2832 23.0273 -79.7217 32.4873c-23.9287 8.56348 -61.2559 15.9336 -93.749 34.3086c-14.8428 8.39648 -28.126 18.1328 -38.3906 30.8848
c0.896484 3.19238 3.48145 7.44922 9.91992 13.0869c8.62891 7.55859 23.416 15.9863 42.6934 23.126c38.5488 14.2812 94.6504 23.8262 156.645 23.8262c0.84082 0 1.6748 -0.0078125 2.51074 -0.0117188h0.1875c0.835938 0.00390625 1.66992 0.0117188 2.50879 0.0117188
c61.9961 0 118.094 -9.54492 156.646 -23.8262c19.2773 -7.13965 34.0645 -15.5674 42.6934 -23.126c6.43945 -5.6377 9.02246 -9.89453 9.91895 -13.0869c-10.2627 -12.752 -23.5479 -22.4883 -38.3906 -30.8848c-32.4932 -18.375 -69.8193 -25.7451 -93.7471 -34.3086
c-26.4395 -9.45996 -59.3467 -23.5371 -79.7246 -32.4873zM276.397 651.025c-0.543945 4.00684 -0.922852 8.18848 -1.11035 12.5723c-1.66699 39.165 6.68555 81.0391 17.7539 118.115l0.115234 0.542969c9.16602 6.33594 20.1504 12.4805 32.7764 18.0752
c44.8291 19.8672 109.379 32.9443 180.788 32.9443c0.53125 0 1.0625 -0.00488281 1.5957 -0.00683594v-0.00195312h0.0927734h0.0947266v0.00195312c0.53125 0.00195312 1.06445 0.00683594 1.59668 0.00683594c71.4082 0 135.957 -13.0771 180.788 -32.9443
c12.6221 -5.59473 23.6094 -11.7393 32.7764 -18.0752l0.113281 -0.542969c11.0703 -37.0762 19.4219 -78.9502 17.7549 -118.115c-0.1875 -4.38379 -0.567383 -8.56543 -1.1123 -12.5723c-14.8867 12.9287 -34.0654 23 -56.7441 31.3984
c-45.7266 16.9404 -106.057 26.7051 -172.664 26.7051c-0.838867 0 -1.67285 -0.00976562 -2.50879 -0.0146484h-0.1875c-0.835938 0.00585938 -1.66992 0.0146484 -2.51074 0.0146484c-66.6064 0 -126.937 -9.76465 -172.663 -26.7051
c-22.6777 -8.39844 -41.8574 -18.4697 -56.7451 -31.3984zM304.557 836.92l0.0224609 0.100586c-8.25391 7.22949 -9.38965 11.5586 -9.38965 13.8896c0 2.33301 1.13574 6.66406 9.38965 13.8916c8.25293 7.22656 22.7715 15.5518 41.835 22.6123
c38.123 14.123 93.9688 23.6562 155.692 23.6562c2.07812 0 4.14453 -0.0126953 6.20996 -0.0341797v-0.00292969h0.0927734h0.0947266v0.00292969c2.06445 0.0214844 4.13184 0.0341797 6.20801 0.0341797c61.7227 0 117.569 -9.5332 155.694 -23.6562
c19.0615 -7.06055 33.5811 -15.3857 41.835 -22.6123c8.25293 -7.22754 9.38965 -11.5586 9.38965 -13.8916c0 -2.33105 -1.13672 -6.66016 -9.38965 -13.8896l0.0195312 -0.100586c-1.47266 0.680664 -2.96289 1.3584 -4.4668 2.02441
c-52.0322 23.0605 -121.295 36.5273 -197.693 36.5273c-0.56543 0 -1.12793 -0.0078125 -1.69141 -0.00878906c-0.563477 0.00195312 -1.12402 0.00878906 -1.68848 0.00878906c-76.3984 0 -145.662 -13.4668 -197.694 -36.5273
c-1.50488 -0.666016 -2.99316 -1.34375 -4.46973 -2.02441zM508.259 454.128h0.302734c0.723633 0.328125 57.5889 26.0469 95.0117 39.4414c15.5312 5.55664 60.1143 14.5146 100.886 37.5742c40.7734 23.0596 80.3154 64.8369 83.1123 130.47
c2.31543 54.373 -10.3096 109.333 -25.2803 154.087c6.84863 10.3203 11.2207 22.1895 11.2207 35.21c0 21.4883 -11.8955 39.8535 -27.207 53.2637c-15.3145 13.4111 -34.8975 23.6748 -57.9736 32.2236c-46.1543 17.0977 -106.736 26.8711 -173.619 26.8711
c-2.0752 0 -4.14355 -0.0117188 -6.20801 -0.03125c-0.0615234 -0.000976562 -0.124023 0.00195312 -0.1875 0c-2.06543 0.0195312 -4.13281 0.03125 -6.20996 0.03125c-66.8838 0 -127.464 -9.77344 -173.617 -26.8711
c-23.0781 -8.54883 -42.6602 -18.8125 -57.9736 -32.2236c-15.3125 -13.4102 -27.2061 -31.7754 -27.2061 -53.2637c0 -13.0205 4.36914 -24.8896 11.2197 -35.21c-14.9707 -44.7539 -27.5957 -99.7139 -25.2793 -154.087c2.79492 -65.6328 42.3359 -107.41 83.1084 -130.47
c40.7734 -23.0596 85.3584 -32.0176 100.886 -37.5742c37.4268 -13.3945 94.291 -39.1133 95.0146 -39.4414zM508.409 504.763c-20.376 8.9502 -53.2832 23.0273 -79.7217 32.4873c-23.9287 8.56348 -61.2559 15.9336 -93.749 34.3086
c-14.8428 8.39648 -28.126 18.1328 -38.3906 30.8848c0.896484 3.19238 3.48145 7.44922 9.91992 13.0869c8.62891 7.55859 23.416 15.9863 42.6934 23.126c38.5488 14.2812 94.6504 23.8262 156.645 23.8262c0.84082 0 1.6748 -0.0078125 2.51074 -0.0117188h0.1875
c0.835938 0.00390625 1.66992 0.0117188 2.50879 0.0117188c61.9961 0 118.094 -9.54492 156.646 -23.8262c19.2773 -7.13965 34.0645 -15.5674 42.6934 -23.126c6.43945 -5.6377 9.02246 -9.89453 9.91895 -13.0869c-10.2627 -12.752 -23.5479 -22.4883 -38.3906 -30.8848
c-32.4932 -18.375 -69.8193 -25.7451 -93.7471 -34.3086c-26.4395 -9.45996 -59.3467 -23.5371 -79.7246 -32.4873zM276.397 651.025c-0.543945 4.00684 -0.922852 8.18848 -1.11035 12.5723c-1.66699 39.165 6.68555 81.0391 17.7539 118.115l0.115234 0.542969
c9.16602 6.33594 20.1504 12.4805 32.7764 18.0752c44.8291 19.8672 109.379 32.9443 180.788 32.9443c0.53125 0 1.0625 -0.00488281 1.5957 -0.00683594v-0.00195312h0.0927734h0.0947266v0.00195312c0.53125 0.00195312 1.06445 0.00683594 1.59668 0.00683594
c71.4082 0 135.957 -13.0771 180.788 -32.9443c12.6221 -5.59473 23.6094 -11.7393 32.7764 -18.0752l0.113281 -0.542969c11.0703 -37.0762 19.4219 -78.9502 17.7549 -118.115c-0.1875 -4.38379 -0.567383 -8.56543 -1.1123 -12.5723
c-14.8867 12.9287 -34.0654 23 -56.7441 31.3984c-45.7266 16.9404 -106.057 26.7051 -172.664 26.7051c-0.838867 0 -1.67285 -0.00976562 -2.50879 -0.0146484h-0.1875c-0.835938 0.00585938 -1.66992 0.0146484 -2.51074 0.0146484
c-66.6064 0 -126.937 -9.76465 -172.663 -26.7051c-22.6777 -8.39844 -41.8574 -18.4697 -56.7451 -31.3984zM304.557 836.92l0.0224609 0.100586c-8.25391 7.22949 -9.38965 11.5586 -9.38965 13.8896c0 2.33301 1.13574 6.66406 9.38965 13.8916
c8.25293 7.22656 22.7715 15.5518 41.835 22.6123c38.123 14.123 93.9688 23.6562 155.692 23.6562c2.07812 0 4.14453 -0.0126953 6.20996 -0.0341797v-0.00292969h0.0927734h0.0947266v0.00292969c2.06445 0.0214844 4.13184 0.0341797 6.20801 0.0341797
c61.7227 0 117.569 -9.5332 155.694 -23.6562c19.0615 -7.06055 33.5811 -15.3857 41.835 -22.6123c8.25293 -7.22754 9.38965 -11.5586 9.38965 -13.8916c0 -2.33105 -1.13672 -6.66016 -9.38965 -13.8896l0.0195312 -0.100586
c-1.47266 0.680664 -2.96289 1.3584 -4.4668 2.02441c-52.0322 23.0605 -121.295 36.5273 -197.693 36.5273c-0.56543 0 -1.12793 -0.0078125 -1.69141 -0.00878906c-0.563477 0.00195312 -1.12402 0.00878906 -1.68848 0.00878906
c-76.3984 0 -145.662 -13.4668 -197.694 -36.5273c-1.50488 -0.666016 -2.99316 -1.34375 -4.46973 -2.02441z" />
</svg>
