<?xml version="1.0" standalone="no"?>
<!DOCTYPE svg PUBLIC "-//W3C//DTD SVG 1.1//EN" "http://www.w3.org/Graphics/SVG/1.1/DTD/svg11.dtd" >
<svg xmlns="http://www.w3.org/2000/svg" xmlns:xlink="http://www.w3.org/1999/xlink" version="1.1" viewBox="-10 0 1024 1000">
   <path fill="currentColor"
d="M506.65 431.63c134.85 0 246.449 36.2705 263.189 82.7705c0.929688 1.85938 1.86035 4.64941 1.86035 7.43945v0.929688v2.79004v3.7207v159.96v2.79004v1.85938v1.86035c0 1.86035 0 3.71973 -0.930664 5.58008h-0.929688
c-13.9502 47.4297 -125.55 85.5596 -263.189 85.5596c-135.78 0 -247.381 -36.2695 -263.19 -83.6992c-0.929688 -1.86035 -1.86035 -4.65039 -1.86035 -7.44043v-2.79004v-0.929688v-0.930664v-163.68v-1.86035v-0.929688v-2.79004
c0 -2.79004 0.930664 -5.58008 1.86035 -7.43945c15.8096 -46.5 128.34 -82.7705 263.19 -82.7705zM506.65 455.81c-118.11 0 -214.83 28.8301 -223.2 65.1006v0.929688v9.2998c8.37012 36.2705 106.02 65.1006 223.2 65.1006c117.18 0 212.97 -27.9004 222.27 -64.1699
v-10.2305l0.929688 -0.929688c-8.36914 -36.2705 -106.02 -65.1006 -223.199 -65.1006zM503.86 483.71h0.929688h1.86035c92.0693 0 167.399 18.5996 167.399 41.8496s-75.3301 42.7803 -167.399 42.7803c-92.0703 0 -167.4 -19.5303 -167.4 -42.7803
s73.4697 -41.8496 164.61 -41.8496zM283.45 576.71v108.81c12.0898 7.44043 26.04 13.9502 41.8496 20.4609c47.4307 17.6699 111.601 28.8291 181.351 28.8291s133.92 -11.1592 181.35 -28.8291c15.8096 -5.58008 28.8301 -13.0205 40.9199 -20.4609v-107.88
c-47.4297 26.04 -128.34 42.7803 -222.27 42.7803c-93.9307 0 -175.771 -17.6699 -223.2 -43.71z" />
</svg>
