<?xml version="1.0" standalone="no"?>
<!DOCTYPE svg PUBLIC "-//W3C//DTD SVG 1.1//EN" "http://www.w3.org/Graphics/SVG/1.1/DTD/svg11.dtd" >
<svg xmlns="http://www.w3.org/2000/svg" xmlns:xlink="http://www.w3.org/1999/xlink" version="1.1" viewBox="-10 0 1024 1000">
   <path fill="currentColor"
d="M507 235.393c1.83789 0.286133 3.61914 0.865234 5.27539 1.71289l64.8867 33.2344c10.7539 5.50977 12.8213 20.001 4.03711 28.2988c0 0 -7.0332 6.64258 -15.0273 14.4414c-3.23633 3.15723 -4.9248 5.08301 -8.07422 8.27344
c5.47754 2.72754 11.8604 5.69922 19.3691 8.82812c22.6201 9.42383 50.4775 19.25 65.6953 24.7285c22.7773 8.19922 65.4688 29.5645 93.7773 69.9082c28.3086 40.3428 37.751 101.351 -7.36719 172.721c-24.5537 38.8389 -44.7812 68.5156 -61.2578 91.1914
c8.08496 5.00098 15.2607 10.543 21.3789 16.7344c11.5938 11.7324 19.5781 26.6494 19.5781 43.0977c0 1.43848 -0.0820312 2.8623 -0.201172 4.27734v41.1211c0 2.58789 -0.265625 5.1748 -0.794922 7.75391h0.404297v31.6875
c0.242188 -1.68164 0.373047 -3.36523 0.390625 -5.04883v49.6074c0 48.3389 -90.3945 87.5459 -202.07 87.7402c-111.677 -0.194336 -202.07 -39.4014 -202.07 -87.7402v-49.6074c0.0185547 1.68359 0.148438 3.36719 0.390625 5.04883v-31.6875h0.404297
c-0.529297 -2.5791 -0.794922 -5.16602 -0.794922 -7.75391v-41.1211c-0.119141 -1.41504 -0.201172 -2.83887 -0.201172 -4.27734c0 -16.4482 7.98438 -31.3652 19.5781 -43.0977c6.11816 -6.19141 13.2939 -11.7334 21.3789 -16.7344
c-16.4766 -22.6758 -36.7041 -52.3525 -61.2578 -91.1914c-45.1182 -71.3701 -35.6758 -132.378 -7.36719 -172.721c28.3086 -40.3438 71 -61.709 93.7773 -69.9082c15.2178 -5.47852 43.0752 -15.3047 65.6953 -24.7285
c7.50879 -3.12891 13.8916 -6.10059 19.3691 -8.82812c-3.14941 -3.19043 -4.83789 -5.11621 -8.07422 -8.27344c-7.99414 -7.79883 -15.0273 -14.4414 -15.0273 -14.4414c-8.78418 -8.29785 -6.7168 -22.7891 4.03711 -28.2988l64.8867 -33.2344
c1.65625 -0.847656 3.4375 -1.42676 5.27539 -1.71289zM507 273.729l-32.4082 16.5996c7.51367 7.3457 15.2119 14.9551 20.0684 20.7832c1.03223 1.23926 1.90234 2.77734 2.5957 4.45703c2.51172 0.912109 5.62793 1.56055 9.04492 1.56055
c4.22754 0 8.00586 -0.983398 10.7305 -2.24414c0.641602 -1.41406 1.41699 -2.70312 2.30859 -3.77344c4.85645 -5.82812 12.5547 -13.4375 20.0684 -20.7832zM526.406 343.529c-6.18066 2.38379 -12.9805 3.59961 -20.1055 3.59961
c-6.77148 0 -13.2471 -1.10449 -19.1797 -3.25977c-1.82715 1.30762 -3.70215 2.44336 -5.71094 3.63672c-8.53906 5.07129 -19.3936 9.97461 -31.416 14.9844c-24.0459 10.0176 -52.3682 19.9736 -67.3008 25.3496c-0.44043 0.158203 -0.954102 0.367188 -1.42383 0.544922
c0.853516 1.18359 1.87793 2.42578 3.12891 3.75c5.24902 5.55371 14.1396 11.6768 25.9199 16.9492c23.5469 10.5361 58.251 17.7207 96.6816 17.7305c38.4307 -0.00976562 73.1348 -7.19434 96.6816 -17.7305c11.7803 -5.27246 20.6709 -11.3955 25.9199 -16.9492
c1.25098 -1.32422 2.27539 -2.56641 3.12891 -3.75c-0.469727 -0.177734 -0.983398 -0.386719 -1.42383 -0.544922c-14.9326 -5.37598 -43.2549 -15.332 -67.3008 -25.3496c-12.0225 -5.00977 -22.877 -9.91309 -31.416 -14.9844
c-2.18262 -1.29688 -4.20801 -2.52051 -6.18359 -3.97656zM350.074 404.42c-15.6006 9.89844 -32.4736 23.5576 -44.3633 40.502c-4.9248 7.01855 -9.21387 14.5186 -12.459 22.6406c0.287109 8.88672 4.41113 17.9248 13.7441 27.5879
c9.68359 10.0254 24.8506 20.0293 44.2734 28.5352c38.8301 17.0039 94.3398 28.084 155.73 28.0938c61.3906 -0.00976562 116.9 -11.0898 155.73 -28.0938c19.4229 -8.50586 34.5898 -18.5098 44.2734 -28.5352c9.33301 -9.66309 13.457 -18.7012 13.7441 -27.5879
c-3.24512 -8.12207 -7.53418 -15.6221 -12.459 -22.6406c-11.8896 -16.9443 -28.7627 -30.6035 -44.3633 -40.502c-2.49512 4.22949 -5.50391 8.17578 -8.88867 11.7578c-9.62207 10.1787 -22.251 18.2256 -37.0605 24.8535
c-29.6025 13.2461 -68.3135 20.7734 -110.977 20.7832c-42.6631 -0.00878906 -81.374 -7.53711 -110.977 -20.7832c-14.8096 -6.62793 -27.4385 -14.6748 -37.0605 -24.8535c-3.38477 -3.58203 -6.39355 -7.52832 -8.88867 -11.7578zM288.635 519.176
c3.22852 17.3896 11.0918 37.0635 25.377 59.6602c43.2188 68.3643 72.5029 107.337 90.5898 128.852c9.04395 10.7568 15.2842 17.1475 19.0098 20.6602c2.57812 2.43066 3.38086 3.09766 3.6582 3.30273c0.938477 0.351562 2.00391 0.701172 3.24414 1.04688
c1.71582 0.871094 3.54688 1.7334 5.51367 2.5625c16.9707 7.15527 42.5957 12.209 70.9727 12.2188c28.377 -0.00976562 54.002 -5.06348 70.9727 -12.2188c1.9668 -0.829102 3.79785 -1.69141 5.51367 -2.5625c1.24023 -0.345703 2.30566 -0.695312 3.24414 -1.04688
c0.277344 -0.205078 1.08008 -0.87207 3.6582 -3.30273c3.72559 -3.5127 9.96582 -9.90332 19.0098 -20.6602c18.0869 -21.5146 47.3711 -60.4873 90.5898 -128.852c14.2852 -22.5967 22.1484 -42.2705 25.377 -59.6602c-13.124 12.542 -30.3066 23.1035 -50.5996 31.9902
c-43.9648 19.2529 -102.825 30.6045 -167.766 30.6133c-64.9404 -0.00878906 -123.801 -11.3604 -167.766 -30.6133c-20.293 -8.88672 -37.4756 -19.4482 -50.5996 -31.9902zM366.945 716.852c-7.43848 4.33594 -13.4365 8.85547 -17.7441 13.2148
c-7.11328 7.19824 -9.47266 13.0957 -9.47266 18.4961s2.35938 11.2988 9.47266 18.498c7.11328 7.19824 18.8076 14.8359 34.0527 21.3613c30.4746 13.0439 74.7559 21.751 123.746 21.7617c48.9902 -0.00976562 93.2715 -8.71777 123.746 -21.7617
c15.2451 -6.52539 26.9395 -14.1631 34.0527 -21.3613c7.11328 -7.19922 9.47266 -13.0977 9.47266 -18.498s-2.35938 -11.2979 -9.47266 -18.4961c-4.30762 -4.35938 -10.3057 -8.87891 -17.7441 -13.2148c-3.92676 4.96387 -7.56055 9.42676 -10.8652 13.3574
c-2.74316 3.2627 -5.25391 6.15723 -7.58984 8.7832c-2.21094 3.69824 -4.91016 7.06934 -7.88086 10.0312c-3.34375 3.33301 -7.06738 6.30859 -11.123 9.00391c-2.35254 1.93457 -3.9707 3.0918 -3.9707 3.0918c-1.62109 1.05273 -3.40625 1.83008 -5.28125 2.30078
c-2.81152 1.44629 -5.73438 2.80762 -8.77344 4.08984c-22.8408 9.62988 -52.2061 14.958 -84.5703 14.9688c-32.3652 -0.00878906 -61.7295 -5.33887 -84.5703 -14.9688c-3.03906 -1.28223 -5.96191 -2.64355 -8.77344 -4.08984
c-1.875 -0.470703 -3.66016 -1.24805 -5.28125 -2.30078c0 0 -1.61816 -1.15723 -3.9707 -3.0918c-4.05566 -2.69531 -7.7793 -5.6709 -11.123 -9.00391c-2.9707 -2.96191 -5.66992 -6.33301 -7.88086 -10.0312c-2.33594 -2.62598 -4.84668 -5.52051 -7.58984 -8.7832
c-3.30469 -3.93066 -6.93848 -8.39355 -10.8652 -13.3574zM304.93 740.557v-0.000976562s0.152344 0.00976562 0.152344 0.0107422c-0.101562 1.13086 -0.152344 2.2627 -0.152344 3.39453v-3.4043zM709.07 740.557v3.4043
c0 -1.13184 -0.0507812 -2.26367 -0.152344 -3.39453zM304.93 824.557v-0.000976562s0.152344 0.00976562 0.152344 0.0107422c-0.101562 1.13086 -0.152344 2.2627 -0.152344 3.39453v-3.4043zM709.07 824.557v3.4043c0 -1.13184 -0.0507812 -2.26367 -0.152344 -3.39453z
M345.32 816.498v54c38.1396 22.0625 98.0137 35.0879 161.68 35.2012c63.666 -0.113281 123.54 -13.1387 161.68 -35.2012v-54c-38.1396 22.0625 -98.0137 35.0879 -161.68 35.2012c-63.666 -0.113281 -123.54 -13.1387 -161.68 -35.2012z" />
</svg>
