<?xml version="1.0" standalone="no"?>
<!DOCTYPE svg PUBLIC "-//W3C//DTD SVG 1.1//EN" "http://www.w3.org/Graphics/SVG/1.1/DTD/svg11.dtd" >
<svg xmlns="http://www.w3.org/2000/svg" xmlns:xlink="http://www.w3.org/1999/xlink" version="1.1" viewBox="-10 0 1024 1000">
   <path fill="currentColor"
d="M507.133 128.938v0c2.10352 0 6.27539 3.76953 6.33398 3.82324l0.0253906 0.0244141c-0.0253906 -0.0244141 61.4521 53.6514 85.3789 81.9648l6.52539 -18.3604s7.18066 16.7627 15.5078 39.5127l114.568 109.985c3.75 3.60156 5.85742 8.48535 5.85742 13.5771
v243.649c0.410156 -0.0283203 0.819336 -0.0546875 1.22852 -0.0839844c-0.0605469 4.50195 -0.490234 8.92383 -1.22852 13.2656v75.2002c0 3.69629 -1.11035 7.31348 -3.19922 10.418l-16.5273 24.5645l14.8242 20.0537c2.40039 3.24707 3.68945 7.12988 3.68945 11.1113
v15.4561l0.0839844 0.0185547v10.043c0 0.785156 -0.0332031 1.57031 -0.0839844 2.35449v17.6836c0 0.416992 -0.0146484 0.833008 -0.0429688 1.24902v7.24707c0.0390625 0.00976562 0.126953 0.0322266 0.126953 0.0322266v5.99414
c-0.000976562 -1.00488 -0.0429688 -2.00879 -0.126953 -3.01367v6.06445c0.0800781 -0.958008 0.126953 -1.91602 0.126953 -2.875v55.5049c0.000976562 50.2676 -101.563 91.0166 -226.85 91.0166c-2.11914 0 -4.23535 -0.0273438 -6.35156 -0.0517578
c-2.11621 0.0244141 -4.23242 0.0517578 -6.35156 0.0517578c-125.286 0 -226.851 -40.749 -226.85 -91.0166v-55.5049c0.00488281 0.958984 0.046875 1.91699 0.126953 2.875v-6.06445c-0.0839844 1.00488 -0.126953 2.00879 -0.126953 3.01367v-5.99414
s0.0878906 -0.0224609 0.126953 -0.0322266v-7.24707c-0.0283203 -0.416016 -0.0429688 -0.832031 -0.0429688 -1.24902v-17.6836c-0.0507812 -0.78418 -0.0839844 -1.56934 -0.0839844 -2.35449v-10.043l0.0839844 -0.0185547v-15.4561
c0 -3.98145 1.28906 -7.86426 3.68945 -11.1113l14.8242 -20.0537l-16.5273 -24.5645c-2.08887 -3.10449 -3.19922 -6.72168 -3.19922 -10.418v-75.2002c-0.738281 -4.3418 -1.16797 -8.76367 -1.22852 -13.2656c0.40918 0.0292969 0.818359 0.0556641 1.22852 0.0839844
v-243.649c0 -5.0918 2.10742 -9.97559 5.85742 -13.5771l114.568 -109.985c8.32715 -22.75 15.5078 -39.5127 15.5078 -39.5127l6.52539 18.3604l85.3867 -81.9727s4.41113 -3.83984 6.61719 -3.83984zM507 180.858l-77.4805 74.3818l19.1309 53.834
c2.2627 -2.43066 4.80371 -5.06543 7.5625 -7.71387c4.59277 -4.4082 9.64746 -8.84863 15.4141 -12.4688c4.3252 -2.71484 9.39941 -5.90625 16.2363 -6.0791c2.2793 -0.0566406 4.75488 0.22168 7.46289 0.963867c9.21777 2.52832 9.81445 7.37012 10.8105 9.6416
c0.356445 0.813477 0.625 1.55176 0.863281 2.26855c0.238281 -0.716797 0.506836 -1.45508 0.863281 -2.26855c0.996094 -2.27148 1.59375 -7.11328 10.8105 -9.6416c2.70801 -0.742188 5.18359 -1.02051 7.46289 -0.963867
c6.83691 0.172852 11.9111 3.36426 16.2363 6.0791c5.7666 3.62012 10.8213 8.06055 15.4141 12.4688c2.75879 2.64844 5.2998 5.2832 7.5625 7.71387l19.1309 -53.834zM370.654 311.752l-57.9863 55.666v246.659c4.93457 19.583 21.7236 38.7188 49.959 54.5967
c20.6514 11.6133 46.8711 20.8506 76.4863 26.3301c7.5 2.91895 16.1855 7.33789 18.5352 12.8154c2.18945 5.10547 6.88965 14.5527 11.1152 22.8809c0.928711 4.10254 -2.65039 5.66992 -7.59766 6c-45.2871 -4.55176 -86.123 -16.8662 -118.607 -35.1338
c-10.9092 -6.13477 -20.9678 -13.0654 -29.8906 -20.6836v4.95215l20.6777 30.7334c4.4375 6.59766 4.24414 15.124 -0.490234 21.5293l-18.9746 25.6689v0.0634766l0.0429688 -0.00976562v15.3457c42.3457 24.626 112.153 39.3301 186.723 39.3301
c2.11914 0 4.23535 -0.0263672 6.35156 -0.0507812c2.11621 0.0244141 4.23242 0.0507812 6.35156 0.0507812c74.5693 0 144.377 -14.7041 186.723 -39.3301v-15.3457l0.0429688 0.00976562v-0.0634766l-18.9746 -25.6689
c-4.73438 -6.40527 -4.92773 -14.9316 -0.490234 -21.5293l20.6777 -30.7334v-4.95215c-8.92285 7.61816 -18.9814 14.5488 -29.8906 20.6836c-32.4844 18.2676 -73.3203 30.582 -118.607 35.1338c-4.94727 -0.330078 -8.52734 -1.89746 -7.59766 -6
c4.22559 -8.32812 8.92578 -17.7754 11.1152 -22.8809c2.34961 -5.47754 11.0352 -9.89648 18.5352 -12.8154c29.6152 -5.47949 55.835 -14.7168 76.4863 -26.3301c28.2354 -15.8779 45.0244 -35.0137 49.959 -54.5967v-246.659l-57.9844 -55.666
c2.44141 12.7822 3.56934 24.3428 2.47266 33.1133c-1.93262 15.4629 -6.95605 51.6455 -12.5195 91.1641c-0.124023 0.510742 -0.209961 1.13867 -0.263672 1.875c-0.672852 4.77832 -1.35352 9.59277 -2.03711 14.4326c-3.52832 13.5225 -11.5557 17.0801 -27.9609 21.666
l-10.2148 2.78418v10.1855l0.28125 0.436523s-0.260742 1.61133 -0.28125 1.74023v8.88379s24.8867 1.22949 27.1387 -2.4248c15.1641 13.3623 15.5518 37.4561 -7.53516 87.1514l-53.5605 103.776l-9.08008 17.5898
c-0.0175781 0.0332031 -7.96289 15.3545 -43.6387 15.3545c-31.1611 0 -39.8623 -11.6885 -41.5762 -14.6709l-0.357422 -0.689453l-62.6367 -121.36c-23.0879 -49.6953 -22.6992 -73.7891 -7.53516 -87.1514c2.25195 3.6543 27.1387 2.4248 27.1387 2.4248v-21.2461
l-10.2148 -2.78418c-16.4053 -4.58594 -24.4326 -8.14355 -27.9609 -21.666c-0.683594 -4.83984 -1.36426 -9.6543 -2.03711 -14.4326c-0.0537109 -0.736328 -0.139648 -1.36426 -0.263672 -1.875c-5.56348 -39.5186 -10.5869 -75.7012 -12.5195 -91.1641
c-1.0957 -8.77051 0.03125 -20.3311 2.47266 -33.1133zM480.398 319.068h-0.00195312c-1.00098 0.889648 -1.99219 1.70996 -2.97852 2.65723c-7.51074 7.20996 -13.9082 15.0879 -13.9082 15.0879c-2.62012 3.24512 -6.55762 5.2627 -10.8242 5.54492l-15.2715 13.1084
l29.1777 271.16l18.6055 16.8115c0.211914 -34.9834 0.441406 -93.8525 0.00976562 -155.487c-0.329102 -46.9561 -1.04492 -94.0137 -2.43359 -129.308c-0.640625 -16.2861 -1.45215 -29.6777 -2.375 -39.5752v0zM533.594 319.068h-0.00195312
c-0.923828 9.89746 -1.73438 23.2891 -2.375 39.5752c-1.38867 35.2939 -2.10449 82.3516 -2.43359 129.308c-0.431641 61.6348 -0.202148 120.504 0.00976562 155.487l18.6055 -16.8115l1.3418 -5.8125l28.1035 -265.248l-15.5391 -13.208
c-4.2666 -0.282227 -8.2041 -2.2998 -10.8242 -5.54492c0 0 -6.39746 -7.87793 -13.9082 -15.0879c-0.986328 -0.947266 -1.97754 -1.76758 -2.97852 -2.65723v0zM313.926 823.327v34.5605c42.3457 24.627 112.153 39.3301 186.723 39.3311
c2.11914 0 4.23535 -0.0273438 6.35156 -0.0517578c2.11621 0.0244141 4.23242 0.0517578 6.35156 0.0517578c74.5693 -0.000976562 144.377 -14.7041 186.723 -39.3311v-34.5605c-42.3457 24.627 -112.153 39.3301 -186.723 39.3311
c-2.11914 0 -4.23535 -0.0273438 -6.35156 -0.0517578c-2.11621 0.0244141 -4.23242 0.0517578 -6.35156 0.0517578c-74.5693 -0.000976562 -144.377 -14.7041 -186.723 -39.3311z" />
</svg>
