<?xml version="1.0" standalone="no"?>
<!DOCTYPE svg PUBLIC "-//W3C//DTD SVG 1.1//EN" "http://www.w3.org/Graphics/SVG/1.1/DTD/svg11.dtd" >
<svg xmlns="http://www.w3.org/2000/svg" xmlns:xlink="http://www.w3.org/1999/xlink" version="1.1" viewBox="-10 0 1024 1000">
   <path fill="currentColor"
d="M506.765 113.54h0.0078125c0.116211 0 0.162109 -0.0263672 0.462891 0c7.77051 1.16992 21.6113 9.08984 35.9551 16.7266c12.46 6.63477 10.0205 23.6094 7.87109 32.1074l-15.3516 49.4727c11.1777 36.5859 21.3398 70.3037 17.9932 101.78
c20.9648 31.0527 39.2188 44.6465 59.252 57.8145c20.9727 13.7842 44.7012 27.2969 69.2891 56.9521c33.8994 40.8906 34.7324 89.7275 15.1211 146.641c-12.8477 37.2891 -37.626 84.1328 -65.7822 136.79c15.8955 6.1875 29.3955 13.6123 39.8809 23.123
c8.41406 7.63281 15.1445 17.3027 17.6475 28.3281l0.167969 -8.01562v8.74609c0.578125 2.77051 0.898438 5.62305 0.898438 8.55273c0 2.78418 -0.296875 5.49609 -0.822266 8.13867v106.88h-0.0761719v3.45508s-0.0654297 0.00390625 -0.0664062 0.00390625
c0.0390625 0.589844 0.0585938 1.17969 0.0585938 1.76953c0 38.6016 -81.4697 69.8994 -182.04 69.9727v0.00390625h-0.111328c-0.0400391 0 -0.0800781 -0.00195312 -0.121094 -0.00195312c-0.0400391 0 -0.0791016 0.00195312 -0.119141 0.00195312h-0.111328
v-0.00390625c-100.571 -0.0742188 -182.041 -31.3711 -182.04 -69.9727c0 -0.589844 0.0195312 -1.17969 0.0585938 -1.76953c-0.000976562 0 -0.0664062 -0.00390625 -0.0664062 -0.00390625v-3.45508h-0.0761719v-106.88
c-0.525391 -2.64258 -0.822266 -5.35449 -0.822266 -8.13867c0 -2.92969 0.320312 -5.78223 0.898438 -8.55273v-8.74609l0.167969 8.01562c2.50195 -11.0254 9.2334 -20.6953 17.6484 -28.3281c10.4844 -9.51074 23.9854 -16.9346 39.8809 -23.123
c-28.1572 -52.6582 -52.9336 -99.502 -65.7832 -136.79c-19.6104 -56.9141 -18.7773 -105.754 15.1211 -146.641c24.5879 -29.6553 48.3174 -43.168 69.2891 -56.9521c20.0342 -13.168 38.2881 -26.7617 59.252 -57.8145c-3.3457 -31.4775 6.81641 -65.1953 17.9941 -101.78
l-15.3525 -49.4727c-2.14941 -8.49805 -4.58887 -25.4727 7.87109 -32.1074c14.3447 -7.6377 28.1855 -15.5566 35.9551 -16.7266zM506.995 221.69v-0.000976562c-9.77734 15.542 -22.541 45.167 -17 88.9004c7.04004 1.70898 20.2178 3.71582 34.041 -0.337891
c5.43359 -43.5459 -7.28809 -73.0596 -17.041 -88.5615zM531.327 334.17v0.000976562c-20.4336 6.0957 -39.1836 2.89844 -48.8848 0.318359c-22.5283 32.0381 -44.6406 48.6914 -64.9219 62.0225c-2.15527 1.41699 -4.26367 2.77637 -6.36719 4.13672l0.164062 0.0234375
c-0.00195312 0.0361328 -0.0175781 0.109375 -0.0175781 0.134766c0 0.34375 0.0615234 1.7002 3.42188 4.74805c3.35938 3.04785 9.63672 6.82812 18.0547 10.0576c16.8359 6.45801 41.9492 10.9385 69.7188 10.9385c1.43262 0 2.85254 -0.0205078 4.26953 -0.0449219
v-0.00390625c0.0771484 0.00195312 0.155273 0.000976562 0.232422 0.00195312c0.0771484 -0.000976562 0.154297 -0.000976562 0.230469 -0.00195312v0.00390625c1.41699 0.0244141 2.83789 0.0449219 4.26953 0.0449219c27.7705 0 52.8848 -4.47949 69.7197 -10.9385
c8.41797 -3.23047 14.6953 -7.00977 18.0547 -10.0576c3.35938 -3.04688 3.42188 -4.4043 3.42188 -4.74805c0 -0.0253906 -0.015625 -0.0976562 -0.0175781 -0.134766l0.164062 -0.0234375c-2.10449 -1.36035 -4.21191 -2.71973 -6.36719 -4.13672
c-20.3486 -13.375 -42.54 -30.0957 -65.1455 -62.3418zM386.147 417.617h-0.00585938c-10.2871 7.73438 -20.4941 16.8945 -31.2969 29.9238c-14.708 17.7393 -21.6484 35.4854 -22.0576 56.3535c1.71387 2.6543 4.0752 5.40918 7.25195 8.29102
c7.85059 7.12012 20.248 14.292 36.0537 20.3555c31.6123 12.127 76.6406 19.9844 126.399 19.9844c1.43262 0 2.84766 -0.0263672 4.26953 -0.0429688v-0.00488281c0.078125 0.00195312 0.155273 0.00195312 0.232422 0.00292969
c0.0771484 -0.00195312 0.154297 -0.00195312 0.230469 -0.00292969v0.00488281c1.42188 0.0166016 2.83789 0.0429688 4.26953 0.0429688c49.7627 0 94.791 -7.85742 126.4 -19.9844c15.8047 -6.06348 28.2021 -13.2344 36.0527 -20.3555
c3.17773 -2.88184 5.53809 -5.63672 7.25195 -8.29102c-0.40918 -20.8691 -7.34961 -38.6143 -22.0566 -56.3535c-10.8037 -13.0293 -21.0117 -22.1885 -31.2969 -29.9238c-2.2832 3.82715 -5.20801 7.24414 -8.41992 10.1582
c-7.38867 6.70117 -16.6631 11.7021 -27.4629 15.8457c-21.6006 8.28711 -49.5859 12.9297 -80.4658 12.9297c-1.50879 0 -3.00488 -0.0195312 -4.5 -0.0429688c-1.49512 0.0234375 -2.99219 0.0429688 -4.50195 0.0429688c-30.8799 0 -58.8643 -4.64258 -80.4648 -12.9297
c-10.7998 -4.14453 -20.0752 -9.14453 -27.4629 -15.8457c-3.21191 -2.91406 -6.1377 -6.33105 -8.41992 -10.1582zM336.8 537.377h0.00390625c2.01758 8.67383 4.76465 17.9199 8.19727 27.8809c15.9902 46.4102 48.0801 105.973 88.6562 183.25
c0.192383 0.214844 0.37793 0.432617 0.583984 0.638672c0.196289 0.241211 0.461914 0.539062 1.05469 1.07617c2.22949 2.02344 6.87207 4.87988 13.2695 7.33398c12.7959 4.90918 32.3281 8.42969 53.9346 8.42969c1.43457 0 2.85449 -0.0253906 4.26953 -0.0566406
v-0.00585938c0.0761719 0.00195312 0.155273 0.00195312 0.232422 0.00390625c0.0761719 -0.00195312 0.15332 -0.00195312 0.230469 -0.00390625v0.00585938c1.41406 0.03125 2.83398 0.0566406 4.26953 0.0566406c21.6055 0 41.1377 -3.52051 53.9336 -8.42969
c6.39844 -2.4541 11.04 -5.31055 13.2695 -7.33398c0.592773 -0.537109 0.858398 -0.834961 1.05469 -1.07617c0.206055 -0.206055 0.391602 -0.423828 0.583984 -0.638672c40.5762 -77.2803 72.665 -136.843 88.6562 -183.25
c3.43262 -9.96094 6.17969 -19.207 8.19727 -27.8809c-8.93457 5.93262 -19.4912 11.127 -31.418 15.7031c-35.1055 13.4678 -82.2402 21.4434 -134.28 21.4434c-1.50879 0 -3 -0.0283203 -4.5 -0.0429688c-1.5 0.0146484 -2.99219 0.0429688 -4.50195 0.0429688
c-52.043 0 -99.1768 -7.97559 -134.279 -21.4434c-11.9277 -4.57617 -22.4834 -9.77051 -31.418 -15.7031zM399.021 742.937h0.00390625c-1.04102 0.375977 -2.07617 0.754883 -3.08203 1.14062c-13.5537 5.20117 -23.8984 11.3154 -29.9082 16.7666
c-6.00879 5.4502 -7.24023 9.12207 -7.24023 11.7129s1.23145 6.2627 7.24023 11.7129c6.00977 5.45117 16.3545 11.5654 29.9082 16.7656c27.1074 10.4004 66.7188 17.3984 110.51 17.3984c0.105469 0 0.209961 -0.00292969 0.314453 -0.00390625v-0.00390625
c0.078125 0 0.155273 0.000976562 0.232422 0.00195312c0.0771484 -0.000976562 0.15332 -0.00195312 0.230469 -0.00195312v0.00390625c0.104492 0.00195312 0.208984 0.00390625 0.314453 0.00390625c43.7891 0 83.4023 -6.99805 110.511 -17.3984
c13.5537 -5.2002 23.8984 -11.3154 29.9072 -16.7656c6.00977 -5.45117 7.24023 -9.12207 7.24023 -11.7129s-1.23047 -6.2627 -7.24023 -11.7129c-6.00879 -5.45117 -16.3535 -11.5664 -29.9072 -16.7666c-1.00684 -0.385742 -2.04102 -0.764648 -3.08203 -1.14062
c-1.60449 3.01465 -3.18164 5.95703 -4.79492 9.00293c-0.978516 8.3584 -5.74609 15.4453 -11.3203 20.502c-6.25879 5.67676 -13.8994 9.75391 -22.6797 13.123c-17.5615 6.7373 -39.9639 10.4219 -64.6807 10.4219c-1.50879 0 -3.00781 -0.0175781 -4.5 -0.0449219
c-1.49219 0.0273438 -2.99219 0.0449219 -4.50195 0.0449219c-24.7158 0 -47.1201 -3.68555 -64.6797 -10.4219c-8.78027 -3.36914 -16.4219 -7.44629 -22.6797 -13.123c-5.57422 -5.05664 -10.3418 -12.1436 -11.3203 -20.502
c-1.61426 -3.0459 -3.19043 -5.98828 -4.79492 -9.00293zM354.644 829.212v49.9922c33.6504 19.6699 90.8096 31.5303 152.12 31.5762c0.0771484 0 0.154297 0.00195312 0.232422 0.00195312c0.0771484 0 0.15332 -0.00195312 0.230469 -0.00195312
c61.3086 -0.0458984 118.469 -11.9062 152.12 -31.5762v-49.9922c-32.54 18.9805 -88.5059 31.5215 -152.12 31.5684v0.00195312h-0.111328h-0.121094h-0.119141h-0.111328v-0.00195312c-63.6133 -0.0458984 -119.575 -12.5879 -152.12 -31.5684z" />
</svg>
