<?xml version="1.0" encoding="UTF-8" standalone="no"?>
<svg
   xmlns:dc="http://purl.org/dc/elements/1.1/"
   xmlns:cc="http://creativecommons.org/ns#"
   xmlns:rdf="http://www.w3.org/1999/02/22-rdf-syntax-ns#"
   xmlns:svg="http://www.w3.org/2000/svg"
   xmlns="http://www.w3.org/2000/svg"
   xmlns:sodipodi="http://sodipodi.sourceforge.net/DTD/sodipodi-0.dtd"
   xmlns:inkscape="http://www.inkscape.org/namespaces/inkscape"
   version="1.1"
   viewBox="-10 0 1024 1e3"
   id="svg838"
   sodipodi:docname="b.svg"
   inkscape:version="1.0.2 (e86c8708, 2021-01-15)">
  <metadata
     id="metadata844">
    <rdf:RDF>
      <cc:Work
         rdf:about="">
        <dc:format>image/svg+xml</dc:format>
        <dc:type
           rdf:resource="http://purl.org/dc/dcmitype/StillImage" />
      </cc:Work>
    </rdf:RDF>
  </metadata>
  <defs
     id="defs842" />
  <sodipodi:namedview
     pagecolor="#ffffff"
     bordercolor="#666666"
     borderopacity="1"
     objecttolerance="10"
     gridtolerance="10"
     guidetolerance="10"
     inkscape:pageopacity="0"
     inkscape:pageshadow="2"
     inkscape:window-width="1280"
     inkscape:window-height="755"
     id="namedview840"
     showgrid="false"
     inkscape:zoom="0.569"
     inkscape:cx="512"
     inkscape:cy="500"
     inkscape:window-x="0"
     inkscape:window-y="23"
     inkscape:window-maximized="1"
     inkscape:current-layer="svg838" />
  <style
     id="style833">
#outline {
  animation-name: scaling;
  animation-duration: 1s;
  animation-iteration-count: infinite;
  transform-origin: center;
}
@keyframes scaling {
0% {transform: scale(0.9);}
  50% {transform: scale(1);}
  100% {transform: scale(0.9);}
}
</style>
  <path
     d="m501.82 315.53h.36426c.87012.39453 69.209 31.303 114.18 47.398 18.665 6.6787 72.245 17.445 121.24 45.157 49 27.712 96.52 77.919 99.881 156.79 2.7832 65.345-12.389 131.4-30.381 185.18 8.2314 12.402 13.485 26.667 13.485 42.314 0 25.824-14.296 47.896-32.697 64.012-18.404 16.117-41.938 28.452-69.671 38.726-55.467 20.548-128.27 32.293-208.65 32.293-2.4941 0-4.9795-.0137-7.4609-.0371-.0742-.00098-.14941.003-.22559 0-2.4814.0234-4.9668.0371-7.4629.0371-80.379 0-153.18-11.745-208.65-32.293-27.734-10.273-51.268-22.608-69.671-38.726-18.402-16.116-32.696-38.188-32.696-64.012 0-15.646 5.252-29.911 13.483-42.314-17.991-53.784-33.164-119.84-30.38-185.18 3.3594-78.875 50.879-129.08 99.879-156.79s102.58-38.478 121.24-45.157c44.978-16.096 113.32-47.004 114.19-47.398zm.181 60.851c-24.487 10.758-64.034 27.674-95.808 39.043-28.757 10.291-73.615 19.148-112.66 41.231-17.839 10.091-33.803 21.791-46.138 37.116 1.0781 3.8359 4.1836 8.9522 11.921 15.728 10.37 9.083 28.142 19.212 51.308 27.791 46.328 17.163 113.75 28.635 188.25 28.635 1.0098 0 2.0117-.01 3.0166-.0147h.22559c1.0049.006 2.0068.0147 3.0146.0147 74.506 0 141.92-11.472 188.25-28.635 23.167-8.5791 40.938-18.708 51.308-27.791 7.7393-6.7764 10.844-11.893 11.921-15.728-12.333-15.325-28.298-27.025-46.137-37.116-39.05-22.083-83.907-30.94-112.66-41.231-31.774-11.369-71.321-28.285-95.812-39.043zm-278.82 175.78c-.65429 4.8164-1.1094 9.8418-1.335 15.109-2.0039 47.068 8.0332 97.391 21.336 141.95l.1377.6543c11.016 7.6143 24.218 14.998 39.39 21.722 53.876 23.876 131.45 39.593 217.27 39.593.63965 0 1.2773-.007 1.918-.01v-.002h.22558v.002c.63868.003 1.2783.01 1.919.01 85.816 0 163.39-15.717 217.27-39.593 15.17-6.7236 28.374-14.107 39.39-21.722l.13672-.6543c13.304-44.557 23.341-94.879 21.337-141.95-.22461-5.2676-.68164-10.293-1.3359-15.109-17.891 15.537-40.94 27.642-68.194 37.735-54.952 20.357-127.46 32.092-207.5 32.092-1.0078 0-2.0098-.0117-3.0146-.0166h-.22558c-1.0049.006-2.0068.0166-3.0166.0166-80.047 0-152.55-11.734-207.5-32.092-27.254-10.094-50.304-22.198-68.194-37.735zm33.841 223.4.0264.12012c-9.919 8.6885-11.285 13.892-11.285 16.692 0 2.8047 1.3662 8.0088 11.285 16.695 9.919 8.6846 27.367 18.69 50.276 27.175 45.815 16.973 112.93 28.43 187.11 28.43 2.4971 0 4.9814-.0156 7.4629-.041v-.003h.22559v.003c2.4814.0254 4.9658.041 7.4609.041 74.177 0 141.29-11.457 187.11-28.43 22.908-8.4854 40.357-18.49 50.276-27.175 9.918-8.6865 11.284-13.891 11.284-16.695 0-2.8008-1.3662-8.0039-11.284-16.692l.0244-.12012c-1.7715.81836-3.5615 1.6328-5.3691 2.4326-62.531 27.713-145.77 43.898-237.58 43.898-.67969 0-1.3555-.009-2.0332-.0107-.67676.003-1.3506.0107-2.0293.0107-91.814 0-175.05-16.185-237.58-43.898-1.8096-.7998-3.5986-1.6143-5.3721-2.4326z"
     fill="currentColor"
     id="path836" />
</svg>
