<?xml version="1.0" encoding="UTF-8" standalone="no"?>
<svg
   xmlns:dc="http://purl.org/dc/elements/1.1/"
   xmlns:cc="http://creativecommons.org/ns#"
   xmlns:rdf="http://www.w3.org/1999/02/22-rdf-syntax-ns#"
   xmlns:svg="http://www.w3.org/2000/svg"
   xmlns="http://www.w3.org/2000/svg"
   xmlns:sodipodi="http://sodipodi.sourceforge.net/DTD/sodipodi-0.dtd"
   xmlns:inkscape="http://www.inkscape.org/namespaces/inkscape"
   version="1.1"
   viewBox="-10 0 1024 1000"
   id="svg835"
   sodipodi:docname="f.svg"
   inkscape:version="1.0.2 (e86c8708, 2021-01-15)">
  <metadata
     id="metadata841">
    <rdf:RDF>
      <cc:Work
         rdf:about="">
        <dc:format>image/svg+xml</dc:format>
        <dc:type
           rdf:resource="http://purl.org/dc/dcmitype/StillImage" />
      </cc:Work>
    </rdf:RDF>
  </metadata>
  <defs
     id="defs839" />
  <sodipodi:namedview
     pagecolor="#ffffff"
     bordercolor="#666666"
     borderopacity="1"
     objecttolerance="10"
     gridtolerance="10"
     guidetolerance="10"
     inkscape:pageopacity="0"
     inkscape:pageshadow="2"
     inkscape:window-width="1280"
     inkscape:window-height="755"
     id="namedview837"
     showgrid="false"
     inkscape:zoom="0.40234376"
     inkscape:cx="437.85942"
     inkscape:cy="422.80348"
     inkscape:window-x="0"
     inkscape:window-y="23"
     inkscape:window-maximized="1"
     inkscape:current-layer="svg835" />
  <path
     id="path1033"
     style="display:inline;fill:#241c1c;fill-opacity:1;stroke-width:2.40954;stroke-linecap:round;stroke-linejoin:round;paint-order:stroke fill markers"
     d="m 502,361.44457 a 245.04051,87.514464 0 0 0 -243.22494,76.87158 c -1.1017,2.05088 -1.77852,4.36671 -1.77852,6.86708 v 2.28485 a 245.04051,87.514464 0 0 0 -0.0379,1.49452 245.04051,87.514464 0 0 0 0.0379,1.53152 v 151.40886 c -0.004,0.21058 -0.0379,0.41926 -0.0379,0.62983 0,0.17453 0.0316,0.34527 0.0379,0.51854 v 3.06297 c 0,2.44503 0.66,4.71256 1.71681,6.73119 14.30277,43.4674 117.73377,77.20509 243.28665,77.20509 126.86313,0 231.2048,-34.43974 243.76833,-78.56366 0.0126,-0.0316 0.0253,-0.0645 0.0379,-0.098 0.70888,-1.71623 1.09917,-3.59207 1.09917,-5.57016 v -1.38336 c 0.0379,-0.63407 0.13596,-1.26479 0.13596,-1.90202 6e-5,-0.76667 -0.0809,-1.52311 -0.13596,-2.28485 v -148.3829 a 245.04051,87.514464 0 0 0 0.13596,-2.90248 245.04051,87.514464 0 0 0 -0.13596,-2.8407 v -1.23513 c 0,-2.51421 -0.68972,-4.84484 -1.80325,-6.90413 A 245.04051,87.514464 0 0 0 502.00205,361.4445 Z m 0,22.5897 a 206.64706,64.930082 0 0 1 206.03658,59.988 c -0.019,0.29215 -0.086,0.56786 -0.086,0.86444 v 9.37433 a 206.64706,64.930082 0 0 1 -205.95013,59.62977 206.64706,64.930082 0 0 1 -206.0489,-60.04972 v -8.65793 c 0,-0.27065 -0.0569,-0.52359 -0.074,-0.79039 a 206.64706,64.930082 0 0 1 206.12296,-60.3585 z m -2.77898,25.97378 A 154.70299,38.958046 0 0 0 347.2935,448.9626 154.70299,38.958046 0 0 0 502,487.91709 154.70299,38.958046 0 0 0 656.7065,448.9626 154.70299,38.958046 0 0 0 502,410.00805 a 154.70299,38.958046 0 0 0 -2.76659,0 154.70299,38.958046 0 0 1 -0.0126,0 z M 295.95109,496.31569 A 245.04051,87.514464 0 0 0 502,536.48058 245.04051,87.514464 0 0 0 707.95013,496.37741 v 100.28878 c -11.0776,7.23177 -24.02288,13.55432 -38.65816,19.13144 -43.77132,16.68027 -102.47746,26.56663 -167.30436,26.56663 -64.82685,0 -123.53293,-9.88636 -167.30431,-26.56663 -14.67985,-5.59413 -27.64727,-11.93376 -38.73221,-19.19322 z" />
</svg>
