<?xml version="1.0" encoding="UTF-8" standalone="no"?>
<svg
   xmlns:dc="http://purl.org/dc/elements/1.1/"
   xmlns:cc="http://creativecommons.org/ns#"
   xmlns:rdf="http://www.w3.org/1999/02/22-rdf-syntax-ns#"
   xmlns:svg="http://www.w3.org/2000/svg"
   xmlns="http://www.w3.org/2000/svg"
   xmlns:sodipodi="http://sodipodi.sourceforge.net/DTD/sodipodi-0.dtd"
   xmlns:inkscape="http://www.inkscape.org/namespaces/inkscape"
   width="100"
   height="100"
   viewBox="0 0 26.458333 26.458333"
   version="1.1"
   id="svg3530"
   sodipodi:docname="a.svg.2021_02_11_17_02_28.0.svg"
   inkscape:version="1.0.2 (e86c8708, 2021-01-15)">
  <defs
     id="defs3524">
    <inkscape:perspective
       sodipodi:type="inkscape:persp3d"
       inkscape:vp_x="0 : 13.229166 : 1"
       inkscape:vp_y="0 : 1000 : 0"
       inkscape:vp_z="26.458333 : 13.229166 : 1"
       inkscape:persp3d-origin="13.229166 : 8.8194443 : 1"
       id="perspective940" />
    <clipPath
       clipPathUnits="userSpaceOnUse"
       id="clipPath2301">
      <path
         d="m 588.705,226 h 58.128 v -29.124 h -58.128 z"
         id="path2299" />
    </clipPath>
    <clipPath
       clipPathUnits="userSpaceOnUse"
       id="clipPath2317">
      <path
         d="m 589.35,234.267 h 57.735 v -20.3 H 589.35 Z"
         id="path2315" />
    </clipPath>
    <clipPath
       clipPathUnits="userSpaceOnUse"
       id="clipPath2333">
      <path
         d="m 589.142,216.18 h 57.251 v -9.452 h -57.251 z"
         id="path2331" />
    </clipPath>
    <clipPath
       clipPathUnits="userSpaceOnUse"
       id="clipPath1573">
      <path
         d="m 589.408,296 h 58.131 v -29.203 h -58.131 z"
         id="path1571" />
    </clipPath>
    <clipPath
       clipPathUnits="userSpaceOnUse"
       id="clipPath1589">
      <path
         d="m 589.402,304.732 h 58.139 V 284.08 h -58.139 z"
         id="path1587" />
    </clipPath>
    <clipPath
       clipPathUnits="userSpaceOnUse"
       id="clipPath1605">
      <path
         d="m 595.852,301.771 h 45.242 v -13.925 h -45.242 z"
         id="path1603" />
    </clipPath>
    <clipPath
       clipPathUnits="userSpaceOnUse"
       id="clipPath1621">
      <path
         d="m 601.668,298.995 h 33.61 v -8.385 h -33.61 z"
         id="path1619" />
    </clipPath>
    <clipPath
       clipPathUnits="userSpaceOnUse"
       id="clipPath1637">
      <path
         d="m 589.846,281.913 h 57.252 v -9.451 h -57.252 z"
         id="path1635" />
    </clipPath>
  </defs>
  <sodipodi:namedview
     id="base"
     pagecolor="#ffffff"
     bordercolor="#666666"
     borderopacity="1.0"
     inkscape:pageopacity="0.0"
     inkscape:pageshadow="2"
     inkscape:zoom="1.979899"
     inkscape:cx="22.820865"
     inkscape:cy="76.969071"
     inkscape:document-units="mm"
     inkscape:current-layer="g1039"
     inkscape:document-rotation="0"
     showgrid="false"
     units="px"
     inkscape:pagecheckerboard="false"
     inkscape:window-width="1252"
     inkscape:window-height="755"
     inkscape:window-x="0"
     inkscape:window-y="23"
     inkscape:window-maximized="0" />
  <metadata
     id="metadata3527">
    <rdf:RDF>
      <cc:Work
         rdf:about="">
        <dc:format>image/svg+xml</dc:format>
        <dc:type
           rdf:resource="http://purl.org/dc/dcmitype/StillImage" />
        <dc:title />
      </cc:Work>
    </rdf:RDF>
  </metadata>
  <g
     inkscape:label="backup"
     inkscape:groupmode="layer"
     id="layer1"
     style="display:none">
    <g
       id="g4521">
      <g
         id="g1563"
         transform="matrix(0.35277777,0,0,-0.35277777,23.48417,16.181165)">
        <path
           d="m 0,0 -0.792,-21.944 c -7.547,-7.311 -28.276,-7.188 -28.276,-7.188 0,0 -20.728,-0.123 -28.275,7.188 l -0.495,21.986 c -10e-4,0.012 0.297,0.024 0.297,0.042 v 0.013 c 0,-0.006 -0.296,-0.013 -0.296,-0.013 0,0 0.213,8.148 28.92,8.148 C -0.21,8.232 0,0 0,0"
           style="fill:#ffffff;fill-opacity:1;fill-rule:nonzero;stroke:none"
           id="path1565" />
      </g>
      <g
         id="g1567"
         transform="matrix(0.35277777,0,0,-0.35277777,-204.95387,120.56222)">
        <g
           id="g1569" />
        <g
           id="g1581">
          <g
             clip-path="url(#clipPath1573)"
             opacity="0.300003"
             id="g1579">
            <g
               transform="translate(647.5385,296)"
               id="g1577">
              <path
                 d="m 0,0 -0.79,-21.969 c -7.547,-7.311 -28.275,-7.234 -28.275,-7.234 0,0 -20.729,-0.054 -28.276,7.257 L -58.131,0 h 0.006 c 0.087,-1.077 1.667,-11.737 29.065,-11.737 27.393,0 28.973,10.66 29.054,11.737 z"
                 style="fill:#000000;fill-opacity:1;fill-rule:nonzero;stroke:none"
                 id="path1575" />
            </g>
          </g>
        </g>
      </g>
      <g
         id="g1583"
         transform="matrix(0.35277777,0,0,-0.35277777,-204.95387,120.56222)">
        <g
           id="g1585" />
        <g
           id="g1597">
          <g
             clip-path="url(#clipPath1589)"
             opacity="0.199997"
             id="g1595">
            <g
               transform="translate(618.4732,287.8456)"
               id="g1593">
              <path
                 d="m 0,0 c -14.969,0.225 -22.509,3.468 -22.62,7.411 -0.099,3.514 10.326,6.276 22.62,6.514 12.558,-0.238 22.719,-3 22.62,-6.514 C 22.509,3.468 15.233,0.225 0,0 m 0,16.886 c -28.729,0 -29.071,-8.764 -29.071,-8.764 l 0.002,-0.042 c 0,-0.012 0.054,-0.024 0.061,-0.042 0.102,-0.573 0.535,-1.163 0.535,-1.776 V 6.256 c 0,-0.108 0.041,-0.216 0.097,-0.33 0.032,-0.072 0.043,-0.144 0.08,-0.216 0.068,-0.138 0.135,-0.276 0.216,-0.419 0.055,-0.096 0.11,-0.198 0.171,-0.3 0.068,-0.102 0.132,-0.203 0.205,-0.311 0.091,-0.132 0.181,-0.257 0.284,-0.389 0.102,-0.131 0.204,-0.262 0.313,-0.4 0.097,-0.113 0.198,-0.227 0.306,-0.346 0.072,-0.083 0.156,-0.167 0.234,-0.25 0.419,-0.441 0.912,-0.887 1.486,-1.333 0.113,-0.083 0.225,-0.167 0.343,-0.256 0.118,-0.089 0.242,-0.178 0.371,-0.261 0.094,-0.065 0.189,-0.13 0.289,-0.202 0.652,-0.426 1.385,-0.853 2.219,-1.255 0.134,-0.065 0.268,-0.13 0.408,-0.195 1.851,-0.868 4.162,-1.651 7.032,-2.262 0.242,-0.047 0.495,-0.1 0.743,-0.147 0.535,-0.106 1.093,-0.206 1.668,-0.3 0.063,-0.011 0.127,-0.017 0.19,-0.029 0.258,-0.041 0.529,-0.082 0.798,-0.117 0.443,-0.065 0.902,-0.124 1.367,-0.182 0.213,-0.024 0.431,-0.047 0.649,-0.071 1.635,-0.181 3.406,-0.31 5.326,-0.381 0.367,-0.017 0.733,-0.029 1.112,-0.041 0.286,-0.005 0.573,-0.011 0.865,-0.017 0.235,0 0.464,-0.006 0.704,-0.006 0.327,-0.006 0.665,-0.006 1.003,-0.006 0.338,0 0.676,0 1.008,0.006 0.229,0 0.458,0.006 0.687,0.006 0.287,0.006 0.573,0.012 0.854,0.017 0.384,0.012 0.762,0.024 1.134,0.041 1.209,0.047 2.361,0.112 3.451,0.2 0.321,0.029 0.637,0.058 0.952,0.088 0.774,0.07 1.515,0.152 2.227,0.246 0.241,0.035 0.476,0.064 0.712,0.1 0.385,0.052 0.758,0.111 1.126,0.17 0.23,0.035 0.455,0.076 0.673,0.117 0.293,0.047 0.575,0.1 0.858,0.159 0.138,0.023 0.27,0.053 0.403,0.082 0.218,0.041 0.431,0.088 0.645,0.135 0.634,0.141 1.239,0.288 1.816,0.441 0.185,0.053 0.364,0.1 0.543,0.153 1.7,0.483 3.156,1.031 4.402,1.616 0.14,0.065 0.274,0.13 0.409,0.195 0.823,0.402 1.543,0.823 2.184,1.249 0.1,0.06 0.194,0.125 0.283,0.19 0.441,0.297 0.837,0.606 1.193,0.909 0.125,0.107 0.25,0.214 0.363,0.315 1.012,0.918 1.696,1.814 2.158,2.604 0.043,0.072 0.087,0.149 0.124,0.221 0.155,0.282 0.286,0.546 0.387,0.792 0.208,0.601 0.368,1.185 0.47,1.752 0,0 -0.339,8.848 -29.068,8.848"
                 style="fill:#000000;fill-opacity:1;fill-rule:nonzero;stroke:none"
                 id="path1591" />
            </g>
          </g>
        </g>
      </g>
      <g
         id="g1599"
         transform="matrix(0.35277777,0,0,-0.35277777,-204.95387,120.56222)">
        <g
           id="g1601" />
        <g
           id="g1613">
          <g
             clip-path="url(#clipPath1605)"
             opacity="0.300003"
             id="g1611">
            <g
               transform="translate(618.4732,292.3641)"
               id="g1609">
              <path
                 d="M 0,0 C -3.473,0.03 -10.305,0.173 -10.325,1.726 -10.345,3.29 0,3.682 0,3.682 0,3.682 10.345,3.29 10.325,1.726 10.305,0.173 3.589,0.03 0,0 m 0,9.407 c -12.294,-0.239 -22.719,-3 -22.62,-6.515 0.111,-3.943 7.651,-7.186 22.62,-7.411 15.233,0.225 22.509,3.468 22.62,7.411 C 22.719,6.407 12.558,9.168 0,9.407"
                 style="fill:#000000;fill-opacity:1;fill-rule:nonzero;stroke:none"
                 id="path1607" />
            </g>
          </g>
        </g>
      </g>
      <g
         id="g1615"
         transform="matrix(0.35277777,0,0,-0.35277777,-204.95387,120.56222)">
        <g
           id="g1617" />
        <g
           id="g1629">
          <g
             clip-path="url(#clipPath1621)"
             opacity="0.300003"
             id="g1627">
            <g
               transform="translate(618.4732,292.3641)"
               id="g1625">
              <path
                 d="M 0,0 C -3.473,0.03 -10.305,0.173 -10.325,1.726 -10.345,3.29 0,3.682 0,3.682 0,3.682 10.345,3.29 10.325,1.726 10.305,0.173 3.589,0.03 0,0 M 0,6.625 C -10.507,6.777 -16.839,3.93 -16.805,2.303 -16.766,0.431 -12.129,-1.706 0,-1.754 12.389,-1.706 16.766,0.431 16.805,2.303 16.839,3.93 10.758,6.777 0,6.625"
                 style="fill:#000000;fill-opacity:1;fill-rule:nonzero;stroke:none"
                 id="path1623" />
            </g>
          </g>
        </g>
      </g>
      <g
         id="g1631"
         transform="matrix(0.35277777,0,0,-0.35277777,-204.95387,120.56222)">
        <g
           id="g1633" />
        <g
           id="g1645">
          <g
             clip-path="url(#clipPath1637)"
             opacity="0.300003"
             id="g1643">
            <g
               transform="translate(647.0978,281.8483)"
               id="g1641">
              <path
                 d="m 0,0 -0.106,-2.931 c -3.042,-1.842 -11.089,-6.456 -28.519,-6.456 -17.418,0 -25.471,4.643 -28.52,6.508 l -0.106,2.943 c 0.058,-0.035 0.111,-0.082 0.159,-0.128 0.118,-0.111 6.514,-6.974 28.467,-6.974 22.056,0 28.407,6.863 28.472,6.921 C -0.106,-0.07 -0.053,-0.029 0,0"
                 style="fill:#000000;fill-opacity:1;fill-rule:nonzero;stroke:none"
                 id="path1639" />
            </g>
          </g>
        </g>
      </g>
      <path
         id="path4434"
         style="fill:#ff0000;fill-opacity:0.582996;stroke-width:0.381037;stroke-linecap:round;stroke-linejoin:round;paint-order:stroke fill markers"
         d="M 50,48.035156 A 38.749998,13.839285 0 0 0 11.25,61.875 38.749998,13.839285 0 0 0 50,75.714844 38.749998,13.839285 0 0 0 88.75,61.875 38.749998,13.839285 0 0 0 50,48.035156 Z m 0,3.572266 A 32.67857,10.267856 0 0 1 82.677734,61.875 32.67857,10.267856 0 0 1 50,72.142578 32.67857,10.267856 0 0 1 17.322266,61.875 32.67857,10.267856 0 0 1 50,51.607422 Z m -0.439453,4.107422 A 24.464284,6.1607132 0 0 0 25.535156,61.875 24.464284,6.1607132 0 0 0 50,68.035156 24.464284,6.1607132 0 0 0 74.464844,61.875 24.464284,6.1607132 0 0 0 50,55.714844 a 24.464284,6.1607132 0 0 0 -0.4375,0 24.464284,6.1607132 0 0 1 -0.002,0 z"
         transform="scale(0.26458333)" />
      <path
         id="path4464"
         style="fill:#ff0000;fill-opacity:0.582996;stroke-width:0.100816;stroke-linecap:round;stroke-linejoin:round;paint-order:stroke fill markers"
         d="m 13.229167,19.134749 c -5.6625188,0 -10.2528332,1.639464 -10.2526045,3.661792 -2.287e-4,2.022328 4.5900857,3.661792 10.2526045,3.661792 5.662519,0 10.252833,-1.639464 10.252604,-3.661792 2.29e-4,-2.022328 -4.590085,-3.661792 -10.252604,-3.661792 z"
         sodipodi:nodetypes="scscs" />
      <path
         id="path4484"
         style="fill:none;fill-opacity:0.582996;stroke:#000000;stroke-width:1.301;stroke-linecap:round;stroke-linejoin:round;stroke-miterlimit:4;stroke-dasharray:none;stroke-opacity:1;paint-order:stroke fill markers"
         d="m 13.229167,17.018081 c -5.6625188,0 -10.2528332,1.639464 -10.2526045,3.661792 -2.287e-4,2.022328 4.5900857,3.661792 10.2526045,3.661792 5.662519,0 10.252833,-1.639464 10.252604,-3.661792 2.29e-4,-2.022328 -4.590085,-3.661792 -10.252604,-3.661792 z"
         sodipodi:nodetypes="scscs" />
    </g>
  </g>
  <g
     inkscape:label="a"
     inkscape:groupmode="layer"
     id="g4667"
     style="display:none">
    <g
       id="g4597"
       transform="matrix(0.35277777,0,0,-0.35277777,23.48417,16.181165)">
      <path
         d="m 0,0 -0.792,-21.944 c -7.547,-7.311 -28.276,-7.188 -28.276,-7.188 0,0 -20.728,-0.123 -28.275,7.188 l -0.495,21.986 c -10e-4,0.012 0.297,0.024 0.297,0.042 v 0.013 c 0,-0.006 -0.296,-0.013 -0.296,-0.013 0,0 0.213,8.148 28.92,8.148 C -0.21,8.232 0,0 0,0"
         style="fill:#ffffff;fill-opacity:1;fill-rule:nonzero;stroke:none"
         id="path4595" />
    </g>
    <g
       id="g4609"
       transform="matrix(0.35277777,0,0,-0.35277777,-204.95387,120.56222)">
      <g
         id="g4599" />
      <g
         id="g4607">
        <g
           clip-path="url(#clipPath1573)"
           opacity="0.300003"
           id="g4605">
          <g
             transform="translate(647.5385,296)"
             id="g4603">
            <path
               d="m 0,0 -0.79,-21.969 c -7.547,-7.311 -28.275,-7.234 -28.275,-7.234 0,0 -20.729,-0.054 -28.276,7.257 L -58.131,0 h 0.006 c 0.087,-1.077 1.667,-11.737 29.065,-11.737 27.393,0 28.973,10.66 29.054,11.737 z"
               style="fill:#000000;fill-opacity:1;fill-rule:nonzero;stroke:none"
               id="path4601" />
          </g>
        </g>
      </g>
    </g>
    <g
       id="g4621"
       transform="matrix(0.35277777,0,0,-0.35277777,-204.95387,120.56222)">
      <g
         id="g4611" />
      <g
         id="g4619">
        <g
           clip-path="url(#clipPath1589)"
           opacity="0.199997"
           id="g4617">
          <g
             transform="translate(618.4732,287.8456)"
             id="g4615">
            <path
               d="m 0,0 c -14.969,0.225 -22.509,3.468 -22.62,7.411 -0.099,3.514 10.326,6.276 22.62,6.514 12.558,-0.238 22.719,-3 22.62,-6.514 C 22.509,3.468 15.233,0.225 0,0 m 0,16.886 c -28.729,0 -29.071,-8.764 -29.071,-8.764 l 0.002,-0.042 c 0,-0.012 0.054,-0.024 0.061,-0.042 0.102,-0.573 0.535,-1.163 0.535,-1.776 V 6.256 c 0,-0.108 0.041,-0.216 0.097,-0.33 0.032,-0.072 0.043,-0.144 0.08,-0.216 0.068,-0.138 0.135,-0.276 0.216,-0.419 0.055,-0.096 0.11,-0.198 0.171,-0.3 0.068,-0.102 0.132,-0.203 0.205,-0.311 0.091,-0.132 0.181,-0.257 0.284,-0.389 0.102,-0.131 0.204,-0.262 0.313,-0.4 0.097,-0.113 0.198,-0.227 0.306,-0.346 0.072,-0.083 0.156,-0.167 0.234,-0.25 0.419,-0.441 0.912,-0.887 1.486,-1.333 0.113,-0.083 0.225,-0.167 0.343,-0.256 0.118,-0.089 0.242,-0.178 0.371,-0.261 0.094,-0.065 0.189,-0.13 0.289,-0.202 0.652,-0.426 1.385,-0.853 2.219,-1.255 0.134,-0.065 0.268,-0.13 0.408,-0.195 1.851,-0.868 4.162,-1.651 7.032,-2.262 0.242,-0.047 0.495,-0.1 0.743,-0.147 0.535,-0.106 1.093,-0.206 1.668,-0.3 0.063,-0.011 0.127,-0.017 0.19,-0.029 0.258,-0.041 0.529,-0.082 0.798,-0.117 0.443,-0.065 0.902,-0.124 1.367,-0.182 0.213,-0.024 0.431,-0.047 0.649,-0.071 1.635,-0.181 3.406,-0.31 5.326,-0.381 0.367,-0.017 0.733,-0.029 1.112,-0.041 0.286,-0.005 0.573,-0.011 0.865,-0.017 0.235,0 0.464,-0.006 0.704,-0.006 0.327,-0.006 0.665,-0.006 1.003,-0.006 0.338,0 0.676,0 1.008,0.006 0.229,0 0.458,0.006 0.687,0.006 0.287,0.006 0.573,0.012 0.854,0.017 0.384,0.012 0.762,0.024 1.134,0.041 1.209,0.047 2.361,0.112 3.451,0.2 0.321,0.029 0.637,0.058 0.952,0.088 0.774,0.07 1.515,0.152 2.227,0.246 0.241,0.035 0.476,0.064 0.712,0.1 0.385,0.052 0.758,0.111 1.126,0.17 0.23,0.035 0.455,0.076 0.673,0.117 0.293,0.047 0.575,0.1 0.858,0.159 0.138,0.023 0.27,0.053 0.403,0.082 0.218,0.041 0.431,0.088 0.645,0.135 0.634,0.141 1.239,0.288 1.816,0.441 0.185,0.053 0.364,0.1 0.543,0.153 1.7,0.483 3.156,1.031 4.402,1.616 0.14,0.065 0.274,0.13 0.409,0.195 0.823,0.402 1.543,0.823 2.184,1.249 0.1,0.06 0.194,0.125 0.283,0.19 0.441,0.297 0.837,0.606 1.193,0.909 0.125,0.107 0.25,0.214 0.363,0.315 1.012,0.918 1.696,1.814 2.158,2.604 0.043,0.072 0.087,0.149 0.124,0.221 0.155,0.282 0.286,0.546 0.387,0.792 0.208,0.601 0.368,1.185 0.47,1.752 0,0 -0.339,8.848 -29.068,8.848"
               style="fill:#000000;fill-opacity:1;fill-rule:nonzero;stroke:none"
               id="path4613" />
          </g>
        </g>
      </g>
    </g>
    <g
       id="g4633"
       transform="matrix(0.35277777,0,0,-0.35277777,-204.95387,120.56222)">
      <g
         id="g4623" />
      <g
         id="g4631">
        <g
           clip-path="url(#clipPath1605)"
           opacity="0.300003"
           id="g4629">
          <g
             transform="translate(618.4732,292.3641)"
             id="g4627">
            <path
               d="M 0,0 C -3.473,0.03 -10.305,0.173 -10.325,1.726 -10.345,3.29 0,3.682 0,3.682 0,3.682 10.345,3.29 10.325,1.726 10.305,0.173 3.589,0.03 0,0 m 0,9.407 c -12.294,-0.239 -22.719,-3 -22.62,-6.515 0.111,-3.943 7.651,-7.186 22.62,-7.411 15.233,0.225 22.509,3.468 22.62,7.411 C 22.719,6.407 12.558,9.168 0,9.407"
               style="fill:#000000;fill-opacity:1;fill-rule:nonzero;stroke:none"
               id="path4625" />
          </g>
        </g>
      </g>
    </g>
    <g
       id="g4645"
       transform="matrix(0.35277777,0,0,-0.35277777,-204.95387,120.56222)">
      <g
         id="g4635" />
      <g
         id="g4643">
        <g
           clip-path="url(#clipPath1621)"
           opacity="0.300003"
           id="g4641">
          <g
             transform="translate(618.4732,292.3641)"
             id="g4639">
            <path
               d="M 0,0 C -3.473,0.03 -10.305,0.173 -10.325,1.726 -10.345,3.29 0,3.682 0,3.682 0,3.682 10.345,3.29 10.325,1.726 10.305,0.173 3.589,0.03 0,0 M 0,6.625 C -10.507,6.777 -16.839,3.93 -16.805,2.303 -16.766,0.431 -12.129,-1.706 0,-1.754 12.389,-1.706 16.766,0.431 16.805,2.303 16.839,3.93 10.758,6.777 0,6.625"
               style="fill:#000000;fill-opacity:1;fill-rule:nonzero;stroke:none"
               id="path4637" />
          </g>
        </g>
      </g>
    </g>
    <g
       id="g4657"
       transform="matrix(0.35277777,0,0,-0.35277777,-204.95387,120.56222)">
      <g
         id="g4647" />
      <g
         id="g4655">
        <g
           clip-path="url(#clipPath1637)"
           opacity="0.300003"
           id="g4653">
          <g
             transform="translate(647.0978,281.8483)"
             id="g4651">
            <path
               d="m 0,0 -0.106,-2.931 c -3.042,-1.842 -11.089,-6.456 -28.519,-6.456 -17.418,0 -25.471,4.643 -28.52,6.508 l -0.106,2.943 c 0.058,-0.035 0.111,-0.082 0.159,-0.128 0.118,-0.111 6.514,-6.974 28.467,-6.974 22.056,0 28.407,6.863 28.472,6.921 C -0.106,-0.07 -0.053,-0.029 0,0"
               style="fill:#000000;fill-opacity:1;fill-rule:nonzero;stroke:none"
               id="path4649" />
          </g>
        </g>
      </g>
    </g>
    <path
       id="path4659"
       style="fill:#ff0000;fill-opacity:0.582996;stroke-width:0.381037;stroke-linecap:round;stroke-linejoin:round;paint-order:stroke fill markers"
       d="m 50,48.035156 a 38.749999,13.839285 0 0 0 -38.462891,12.15625 c -0.174216,0.324336 -0.28125,0.690541 -0.28125,1.085938 v 0.361328 A 38.749999,13.839285 0 0 0 11.25,61.875 a 38.749999,13.839285 0 0 0 0.0059,0.242188 v 23.943359 c -6.63e-4,0.03327 -0.0059,0.06628 -0.0059,0.09961 -3e-6,0.02749 0.0054,0.05458 0.0059,0.08203 v 0.484374 c 0,0.386647 0.104367,0.74523 0.271485,1.064454 C 13.789151,94.664824 30.145433,100 50,100 c 21.401647,0 38.750866,-6.196399 38.75,-13.839844 1.8e-4,-1.588533 -0.759414,-3.112308 -2.138672,-4.533203 -0.491177,0.63847 -1.044889,1.242517 -1.660156,1.796875 -2.153877,1.940659 -5.035154,3.515105 -8.496094,4.833984 -6.92188,2.637767 -16.205493,4.201172 -26.457031,4.201172 -10.251534,0 -19.535152,-1.563405 -26.457031,-4.201172 -2.321426,-0.884638 -4.372059,-1.887166 -6.125,-3.035156 V 69.363281 A 38.749999,13.839285 0 0 0 50,75.714844 38.749999,13.839285 0 0 0 88.75,61.875 38.749999,13.839285 0 0 0 50,48.035156 Z m 0,3.572266 A 32.67857,10.267856 0 0 1 82.677734,61.875 32.67857,10.267856 0 0 1 50,72.142578 32.67857,10.267856 0 0 1 17.416016,62.646484 v -1.36914 c 0,-0.04282 -0.0094,-0.08277 -0.01172,-0.125 A 32.67857,10.267856 0 0 1 50,51.607422 Z m -0.439453,4.107422 A 24.464284,6.1607131 0 0 0 25.535156,61.875 24.464284,6.1607131 0 0 0 50,68.035156 24.464284,6.1607131 0 0 0 74.464844,61.875 24.464284,6.1607131 0 0 0 50,55.714844 a 24.464284,6.1607131 0 0 0 -0.4375,0 24.464284,6.1607131 0 0 1 -0.002,0 z"
       transform="scale(0.26458333)" />
    <path
       style="color:#000000;font-style:normal;font-variant:normal;font-weight:normal;font-stretch:normal;font-size:medium;line-height:normal;font-family:sans-serif;font-variant-ligatures:normal;font-variant-position:normal;font-variant-caps:normal;font-variant-numeric:normal;font-variant-alternates:normal;font-variant-east-asian:normal;font-feature-settings:normal;font-variation-settings:normal;text-indent:0;text-align:start;text-decoration:none;text-decoration-line:none;text-decoration-style:solid;text-decoration-color:#000000;letter-spacing:normal;word-spacing:normal;text-transform:none;writing-mode:lr-tb;direction:ltr;text-orientation:mixed;dominant-baseline:auto;baseline-shift:baseline;text-anchor:start;white-space:normal;shape-padding:0;shape-margin:0;inline-size:0;clip-rule:nonzero;display:inline;overflow:visible;visibility:visible;isolation:auto;mix-blend-mode:normal;color-interpolation:sRGB;color-interpolation-filters:linearRGB;solid-color:#000000;solid-opacity:1;vector-effect:none;fill:#df4a4a;fill-opacity:1;fill-rule:nonzero;stroke:none;stroke-width:1.3871;stroke-linecap:butt;stroke-linejoin:miter;stroke-miterlimit:4;stroke-dasharray:none;stroke-dashoffset:0;stroke-opacity:1;color-rendering:auto;image-rendering:auto;shape-rendering:auto;text-rendering:auto;enable-background:accumulate;stop-color:#000000"
       d="m 3.6787157,16.276194 v 6.617859"
       id="path4724" />
    <rect
       style="display:inline;fill:#ff0000;fill-opacity:0.582996;stroke-width:0.068494;stroke-linecap:round;stroke-linejoin:round;paint-order:stroke fill markers"
       id="rect944-0"
       width="1.6300223"
       height="7.9512954"
       x="-0.10630586"
       y="14.545186"
       rx="0.60882354" />
  </g>
  <g
     inkscape:label="a1"
     inkscape:groupmode="layer"
     id="g1039"
     style="display:inline">
    <g
       id="g971"
       transform="matrix(0.35277777,0,0,-0.35277777,23.48417,16.181165)">
      <path
         d="m 0,0 -0.792,-21.944 c -7.547,-7.311 -28.276,-7.188 -28.276,-7.188 0,0 -20.728,-0.123 -28.275,7.188 l -0.495,21.986 c -10e-4,0.012 0.297,0.024 0.297,0.042 v 0.013 c 0,-0.006 -0.296,-0.013 -0.296,-0.013 0,0 0.213,8.148 28.92,8.148 C -0.21,8.232 0,0 0,0"
         style="fill:#ffffff;fill-opacity:1;fill-rule:nonzero;stroke:none"
         id="path969" />
    </g>
    <path
       id="path1033"
       style="fill:#241c1c;fill-opacity:1;stroke-width:0.100816;stroke-linecap:round;stroke-linejoin:round;paint-order:stroke fill markers"
       d="M 13.229184,12.709309 A 10.252604,3.6616441 0 0 0 3.0525461,15.92565 c -0.046095,0.08581 -0.074414,0.182705 -0.074414,0.287321 v 0.0956 a 10.252604,3.6616441 0 0 0 -0.00155,0.06253 10.252604,3.6616441 0 0 0 0.00155,0.06408 v 6.335014 c -1.754e-4,0.0088 -0.00155,0.01754 -0.00155,0.02635 -8e-7,0.0073 0.00143,0.01444 0.00155,0.0217 v 0.128158 c 0,0.1023 0.027614,0.197175 0.07183,0.281636 0.5984364,1.818695 4.926036,3.230294 10.1792219,3.230294 5.308012,0 9.673713,-1.440974 10.199377,-3.287138 4.06e-4,-0.0014 0.0011,-0.0027 0.0015,-0.0041 0.02966,-0.07181 0.04599,-0.150294 0.04599,-0.23306 v -0.05788 c 0.0016,-0.02653 0.0057,-0.05292 0.0057,-0.07958 3e-6,-0.03208 -0.0034,-0.06373 -0.0057,-0.0956 v -6.208407 a 10.252604,3.6616441 0 0 0 0.0057,-0.121439 10.252604,3.6616441 0 0 0 -0.0057,-0.118856 v -0.05168 c 0,-0.105196 -0.02886,-0.20271 -0.07545,-0.288871 A 10.252604,3.6616441 0 0 0 13.229184,12.709309 Z m 0,0.945162 a 8.6462049,2.7167035 0 0 1 8.620662,2.509924 c -7.24e-4,0.01222 -0.0036,0.02377 -0.0036,0.03617 v 0.392225 a 8.6462049,2.7167035 0 0 1 -8.617045,2.494938 8.6462049,2.7167035 0 0 1 -8.6211772,-2.512509 v -0.362251 c 0,-0.01133 -0.0025,-0.0219 -0.0031,-0.03307 a 8.6462049,2.7167035 0 0 1 8.6242782,-2.525427 z m -0.116272,1.086755 a 6.4728417,1.630022 0 0 0 -6.3567161,1.629875 6.4728417,1.630022 0 0 0 6.4729881,1.629874 6.4728417,1.630022 0 0 0 6.47299,-1.629874 6.4728417,1.630022 0 0 0 -6.47299,-1.629875 6.4728417,1.630022 0 0 0 -0.115755,0 6.4728417,1.630022 0 0 1 -5.17e-4,0 z m -8.5049052,3.611149 a 10.252604,3.6616441 0 0 0 8.6211772,1.680518 10.252604,3.6616441 0 0 0 8.617045,-1.677934 v 4.196126 c -0.463491,0.30258 -1.005126,0.567118 -1.617473,0.800468 -1.831413,0.697909 -4.287703,1.11156 -7.000089,1.11156 -2.712384,0 -5.1686735,-0.413651 -7.0000873,-1.11156 C 5.6143691,23.117493 5.0718058,22.85224 4.6080068,22.548501 Z" />
    <path
       style="color:#000000;font-style:normal;font-variant:normal;font-weight:normal;font-stretch:normal;font-size:medium;line-height:normal;font-family:sans-serif;font-variant-ligatures:normal;font-variant-position:normal;font-variant-caps:normal;font-variant-numeric:normal;font-variant-alternates:normal;font-variant-east-asian:normal;font-feature-settings:normal;font-variation-settings:normal;text-indent:0;text-align:start;text-decoration:none;text-decoration-line:none;text-decoration-style:solid;text-decoration-color:#000000;letter-spacing:normal;word-spacing:normal;text-transform:none;writing-mode:lr-tb;direction:ltr;text-orientation:mixed;dominant-baseline:auto;baseline-shift:baseline;text-anchor:start;white-space:normal;shape-padding:0;shape-margin:0;inline-size:0;clip-rule:nonzero;display:inline;overflow:visible;visibility:visible;isolation:auto;mix-blend-mode:normal;color-interpolation:sRGB;color-interpolation-filters:linearRGB;solid-color:#000000;solid-opacity:1;vector-effect:none;fill:#df4a4a;fill-opacity:1;fill-rule:nonzero;stroke:none;stroke-width:1.3871;stroke-linecap:butt;stroke-linejoin:miter;stroke-miterlimit:4;stroke-dasharray:none;stroke-dashoffset:0;stroke-opacity:1;color-rendering:auto;image-rendering:auto;shape-rendering:auto;text-rendering:auto;enable-background:accumulate;stop-color:#000000"
       d="m 13.229167,19.840474 v 6.617859"
       id="path1035" />
  </g>
</svg>
