<?xml version="1.0" encoding="UTF-8" standalone="no"?>
<svg
   xmlns:dc="http://purl.org/dc/elements/1.1/"
   xmlns:cc="http://creativecommons.org/ns#"
   xmlns:rdf="http://www.w3.org/1999/02/22-rdf-syntax-ns#"
   xmlns:svg="http://www.w3.org/2000/svg"
   xmlns="http://www.w3.org/2000/svg"
   xmlns:sodipodi="http://sodipodi.sourceforge.net/DTD/sodipodi-0.dtd"
   xmlns:inkscape="http://www.inkscape.org/namespaces/inkscape"
   version="1.1"
   viewBox="-10 0 1024 1000"
   id="svg1592"
   sodipodi:docname="h.svg"
   inkscape:version="1.0.2 (e86c8708, 2021-01-15)">
  <metadata
     id="metadata1598">
    <rdf:RDF>
      <cc:Work
         rdf:about="">
        <dc:format>image/svg+xml</dc:format>
        <dc:type
           rdf:resource="http://purl.org/dc/dcmitype/StillImage" />
      </cc:Work>
    </rdf:RDF>
  </metadata>
  <defs
     id="defs1596">
    <clipPath
       clipPathUnits="userSpaceOnUse"
       id="clipPath2053">
      <path
         d="m 489.599,242.989 h 50.122 V 217.46 h -50.122 z"
         id="path2051" />
    </clipPath>
    <clipPath
       clipPathUnits="userSpaceOnUse"
       id="clipPath2069">
      <path
         d="m 489.543,245.932 h 50.234 v -21.99 h -50.234 z"
         id="path2067" />
    </clipPath>
    <clipPath
       clipPathUnits="userSpaceOnUse"
       id="clipPath2085">
      <path
         d="m 490.038,222.164 h 49.244 v -20.033 h -49.244 z"
         id="path2083" />
    </clipPath>
    <clipPath
       clipPathUnits="userSpaceOnUse"
       id="clipPath2101">
      <path
         d="m 489.984,222.164 h 49.403 v -8.017 h -49.403 z"
         id="path2099" />
    </clipPath>
    <clipPath
       clipPathUnits="userSpaceOnUse"
       id="clipPath2117">
      <path
         d="m 490.11,216.074 h 49.101 v -6.856 H 490.11 Z"
         id="path2115" />
    </clipPath>
    <clipPath
       clipPathUnits="userSpaceOnUse"
       id="clipPath2133">
      <path
         d="m 506.373,236.308 h 16.68 v -10.311 h -16.68 z"
         id="path2131" />
    </clipPath>
    <clipPath
       clipPathUnits="userSpaceOnUse"
       id="clipPath2149">
      <path
         d="m 489.64,289.829 h 50.039 V 225.997 H 489.64 Z"
         id="path2147" />
    </clipPath>
    <clipPath
       clipPathUnits="userSpaceOnUse"
       id="clipPath2165">
      <path
         d="M 504.418,274 H 525.01 V 232.47 H 504.418 Z"
         id="path2163" />
    </clipPath>
    <clipPath
       clipPathUnits="userSpaceOnUse"
       id="clipPath2181">
      <path
         d="m 500.147,284.497 h 29.133 v -58.5 h -29.133 z"
         id="path2179" />
    </clipPath>
    <clipPath
       clipPathUnits="userSpaceOnUse"
       id="clipPath2197">
      <path
         d="m 518.965,277.556 h 21.146 V 228 h -21.146 z"
         id="path2195" />
    </clipPath>
    <clipPath
       clipPathUnits="userSpaceOnUse"
       id="clipPath2213">
      <path
         d="m 489.208,277.556 h 21.253 V 228 h -21.253 z"
         id="path2211" />
    </clipPath>
    <clipPath
       clipPathUnits="userSpaceOnUse"
       id="clipPath2229">
      <path
         d="M 514.904,273.704 H 525.01 V 232.47 h -10.106 z"
         id="path2227" />
    </clipPath>
    <clipPath
       clipPathUnits="userSpaceOnUse"
       id="clipPath2245">
      <path
         d="m 523.205,254.074 h 3.859 v -3.551 h -3.859 z"
         id="path2243" />
    </clipPath>
    <clipPath
       clipPathUnits="userSpaceOnUse"
       id="clipPath2261">
      <path
         d="m 502.307,254.074 h 3.808 v -3.551 h -3.808 z"
         id="path2259" />
    </clipPath>
    <clipPath
       clipPathUnits="userSpaceOnUse"
       id="clipPath857">
      <path
         d="m 338.603,256.415 h 0.109 v -0.106 h -0.109 z"
         id="path855" />
    </clipPath>
    <clipPath
       clipPathUnits="userSpaceOnUse"
       id="clipPath873">
      <path
         d="m 338.603,256.415 h 0.109 v -0.106 h -0.109 z"
         id="path871" />
    </clipPath>
    <clipPath
       clipPathUnits="userSpaceOnUse"
       id="clipPath889">
      <path
         d="m 338.603,256.415 h 0.215 v -0.211 h -0.215 z"
         id="path887" />
    </clipPath>
    <clipPath
       clipPathUnits="userSpaceOnUse"
       id="clipPath905">
      <path
         d="m 333.544,258.97 h 0.748 v -0.228 h -0.748 z"
         id="path903" />
    </clipPath>
    <clipPath
       clipPathUnits="userSpaceOnUse"
       id="clipPath921">
      <path
         d="m 279.093,253.213 h 0.29 v -0.312 h -0.29 z"
         id="path919" />
    </clipPath>
    <clipPath
       clipPathUnits="userSpaceOnUse"
       id="clipPath937">
      <path
         d="m 279.383,253.358 h 0.15 v -0.145 h -0.15 z"
         id="path935" />
    </clipPath>
    <clipPath
       clipPathUnits="userSpaceOnUse"
       id="clipPath953">
      <path
         d="m 283.082,255.698 h 0.845 v -0.295 h -0.845 z"
         id="path951" />
    </clipPath>
    <clipPath
       clipPathUnits="userSpaceOnUse"
       id="clipPath969">
      <path
         d="m 279.383,253.358 h 0.15 v -0.145 h -0.15 z"
         id="path967" />
    </clipPath>
    <clipPath
       clipPathUnits="userSpaceOnUse"
       id="clipPath985">
      <path
         d="m 283.082,255.698 h 0.845 v -0.295 h -0.845 z"
         id="path983" />
    </clipPath>
    <clipPath
       clipPathUnits="userSpaceOnUse"
       id="clipPath1001">
      <path
         d="m 281.473,255.175 h 1.038 v -0.484 h -1.038 z"
         id="path999" />
    </clipPath>
    <clipPath
       clipPathUnits="userSpaceOnUse"
       id="clipPath1017">
      <path
         d="m 283.082,255.698 h 0.845 v -0.295 h -0.845 z"
         id="path1015" />
    </clipPath>
    <clipPath
       clipPathUnits="userSpaceOnUse"
       id="clipPath1033">
      <path
         d="m 283.082,255.698 h 0.845 v -0.295 h -0.845 z"
         id="path1031" />
    </clipPath>
    <clipPath
       clipPathUnits="userSpaceOnUse"
       id="clipPath1049">
      <path
         d="m 285.286,256.177 h 0.383 v -0.092 h -0.383 z"
         id="path1047" />
    </clipPath>
    <clipPath
       clipPathUnits="userSpaceOnUse"
       id="clipPath1069">
      <path
         d="m 287.788,295.798 h 54.418 v -25.143 h -54.418 z"
         id="path1067" />
    </clipPath>
    <clipPath
       clipPathUnits="userSpaceOnUse"
       id="clipPath1085">
      <path
         d="m 294.741,295.798 h 40.512 V 284.12 h -40.512 z"
         id="path1083" />
    </clipPath>
    <clipPath
       clipPathUnits="userSpaceOnUse"
       id="clipPath1101">
      <path
         d="m 298.58,295.798 h 32.834 v -9.267 H 298.58 Z"
         id="path1099" />
    </clipPath>
    <clipPath
       clipPathUnits="userSpaceOnUse"
       id="clipPath1117">
      <path
         d="m 303,295.798 h 24 v -6.9 h -24 z"
         id="path1115" />
    </clipPath>
    <clipPath
       clipPathUnits="userSpaceOnUse"
       id="clipPath1133">
      <path
         d="M 287.673,279.378 H 342.33 V 240.476 H 287.673 Z"
         id="path1131" />
    </clipPath>
    <clipPath
       clipPathUnits="userSpaceOnUse"
       id="clipPath1149">
      <path
         d="m 306.311,295.798 h 17.372 v -5.2 h -17.372 z"
         id="path1147" />
    </clipPath>
    <clipPath
       clipPathUnits="userSpaceOnUse"
       id="clipPath1165">
      <path
         d="m 291.373,260.703 h 47.392 v -15.84 h -47.392 z"
         id="path1163" />
    </clipPath>
    <clipPath
       clipPathUnits="userSpaceOnUse"
       id="clipPath1181">
      <path
         d="m 292.139,257.105 h 45.694 v -12.242 h -45.694 z"
         id="path1179" />
    </clipPath>
    <clipPath
       clipPathUnits="userSpaceOnUse"
       id="clipPath1197">
      <path
         d="m 291.373,255.095 h 47.392 v -10.232 h -47.392 z"
         id="path1195" />
    </clipPath>
    <clipPath
       clipPathUnits="userSpaceOnUse"
       id="clipPath1213">
      <path
         d="m 291.106,253.197 h 47.783 v -12.721 h -47.783 z"
         id="path1211" />
    </clipPath>
    <clipPath
       clipPathUnits="userSpaceOnUse"
       id="clipPath1229">
      <path
         d="m 290.883,248.544 h 48.244 v -22.808 h -48.244 z"
         id="path1227" />
    </clipPath>
    <clipPath
       clipPathUnits="userSpaceOnUse"
       id="clipPath1245">
      <path
         d="m 290.98,244.38 h 48.023 V 233.844 H 290.98 Z"
         id="path1243" />
    </clipPath>
    <clipPath
       clipPathUnits="userSpaceOnUse"
       id="clipPath1261">
      <path
         d="M 304.994,326.201 H 325.03 V 292.869 H 304.994 Z"
         id="path1259" />
    </clipPath>
    <clipPath
       clipPathUnits="userSpaceOnUse"
       id="clipPath1277">
      <path
         d="m 305.042,301.91 h 19.912 v -9.041 h -19.912 z"
         id="path1275" />
    </clipPath>
  </defs>
  <sodipodi:namedview
     pagecolor="#ffffff"
     bordercolor="#666666"
     borderopacity="1"
     objecttolerance="10"
     gridtolerance="10"
     guidetolerance="10"
     inkscape:pageopacity="0"
     inkscape:pageshadow="2"
     inkscape:window-width="1280"
     inkscape:window-height="755"
     id="namedview1594"
     showgrid="false"
     inkscape:snap-nodes="false"
     inkscape:snap-bbox="false"
     inkscape:bbox-nodes="true"
     inkscape:object-paths="true"
     inkscape:snap-intersection-paths="true"
     inkscape:snap-smooth-nodes="true"
     inkscape:snap-midpoints="true"
     inkscape:snap-object-midpoints="true"
     inkscape:snap-others="false"
     inkscape:zoom="0.40234376"
     inkscape:cx="393.80573"
     inkscape:cy="648.82122"
     inkscape:window-x="0"
     inkscape:window-y="23"
     inkscape:window-maximized="1"
     inkscape:current-layer="svg1592" />
  <path
     id="path3678"
     style="fill:#000000;stroke:none;stroke-width:0.824154;stroke-linecap:round;stroke-linejoin:round;stroke-miterlimit:4;stroke-dasharray:none;paint-order:markers fill stroke"
     d="m 502.1328,128.93836 c -2.2057,0 -6.6172,3.84006 -6.6172,3.84006 l -85.3867,81.97271 -6.5254,-18.36033 c 0,0 -7.1807,16.76247 -15.5078,39.51259 L 273.5274,345.8891 c -3.75,3.60107 -5.8575,8.48484 -5.8575,13.57712 V 603.1156 c -0.4102,-0.0291 -0.8192,-0.0553 -1.2285,-0.0844 0.061,4.50212 0.4905,8.9234 1.2285,13.26586 v 75.2001 c -10e-5,3.69576 1.1108,7.31304 3.1993,10.41768 l 16.5273,24.56482 -14.8242,20.05348 c -2.4,3.24705 -3.6893,7.13 -3.6895,11.11145 v 15.45591 l -0.084,0.0187 v 10.04269 c 4e-4,0.78506 0.033,1.57028 0.084,2.35503 v 17.68345 c 2e-4,0.4166 0.015,0.83308 0.043,1.24878 v 7.24699 c -0.039,0.01 -0.1269,0.0319 -0.127,0.0319 v 5.99448 c 0,-1.00457 0.043,-2.0091 0.127,-3.01318 v 6.06385 c -0.08,-0.95781 -0.1223,-1.91604 -0.127,-2.87442 v 55.50481 c -5e-4,50.26689 101.5639,91.01626 226.8497,91.01597 2.1193,0 4.2352,-0.0269 6.3515,-0.0509 2.1163,0.024 4.2323,0.0509 6.3516,0.0509 125.2858,2.9e-4 226.8502,-40.74908 226.8496,-91.01597 v -55.50481 c 0,0.95838 -0.047,1.91661 -0.127,2.87442 v -6.06385 c 0.084,1.00408 0.1261,2.00861 0.127,3.01318 v -5.99448 c 0,0 -0.088,-0.0223 -0.127,-0.0319 v -7.24699 c 0.028,-0.4157 0.043,-0.83218 0.043,-1.24878 v -17.68345 c 0.051,-0.78475 0.084,-1.56997 0.084,-2.35503 V 773.1192 l -0.084,-0.0187 v -15.4559 c -2e-4,-3.98145 -1.2894,-7.8644 -3.6894,-11.11145 l -14.8243,-20.05348 16.5274,-24.56482 c 2.0885,-3.10464 3.1993,-6.72192 3.1992,-10.41768 v -75.2001 c 0.738,-4.34246 1.1675,-8.76374 1.2285,-13.26586 -0.4093,0.0291 -0.8183,0.0553 -1.2285,0.0844 V 359.46622 c 0,-5.09228 -2.1074,-9.97605 -5.8574,-13.57712 L 615.9043,235.90339 C 607.5772,213.15327 600.3965,196.3908 600.3965,196.3908 l -6.5254,18.36033 c -23.9263,-28.31349 -85.4043,-81.98958 -85.3789,-81.96521 l -0.025,-0.0244 c -0.059,-0.0532 -4.2309,-3.82319 -6.334,-3.82319 z M 502,180.85803 l 77.4805,74.38258 -19.1309,53.83409 c -2.2622,-2.43157 -4.8038,-5.06547 -7.5625,-7.71389 -4.5927,-4.40902 -9.647,-8.84903 -15.414,-12.46898 -4.3252,-2.71494 -9.3998,-5.90638 -16.2364,-6.07885 -2.2789,-0.0575 -4.7548,0.22102 -7.4629,0.96377 -9.2172,2.52821 -9.8146,7.37015 -10.8105,9.64141 -0.3568,0.81367 -0.6249,1.55188 -0.8633,2.26879 -0.2384,-0.71691 -0.5065,-1.45512 -0.8633,-2.26879 -0.9959,-2.27126 -1.5932,-7.11323 -10.8105,-9.64141 -2.7078,-0.74274 -5.184,-1.02126 -7.4629,-0.96377 -6.8366,0.17247 -11.9111,3.36391 -16.2363,6.07885 -5.767,3.61995 -10.8214,8.05997 -15.4141,12.46898 -2.7587,2.64842 -5.3003,5.28232 -7.5625,7.71389 L 424.5196,255.24061 Z M 365.6543,311.75224 c -2.4416,12.78191 -3.5688,24.34296 -2.4726,33.1131 1.9329,15.46296 6.956,51.64553 12.5195,91.16413 0.1238,0.51023 0.2097,1.13863 0.2637,1.87504 0.6725,4.77773 1.3535,9.59246 2.0371,14.43213 3.5286,13.52285 11.5561,17.08025 27.9609,21.66601 l 10.2149,2.78442 v 21.24601 c 0,0 -24.8863,1.22924 -27.1387,-2.42442 -15.1643,13.36237 -15.5523,37.45556 7.5351,87.15157 l 62.6368,121.35967 0.3574,0.69001 c 1.7135,2.9818 10.4153,14.67026 41.5762,14.67026 35.6754,0 43.6212,-15.32102 43.6386,-15.35465 l 9.0801,-17.58968 53.5605,-103.77561 c 23.0874,-49.69601 22.6995,-73.7892 7.5352,-87.15157 -2.2524,3.65366 -27.1387,2.42442 -27.1387,2.42442 v -8.8839 c 0.021,-0.1288 0.2813,-1.74003 0.2813,-1.74003 l -0.2813,-0.43689 v -10.18519 l 10.2149,-2.78442 c 16.4048,-4.58576 24.4323,-8.14316 27.9609,-21.66601 0.6836,-4.83967 1.3644,-9.6544 2.0371,-14.43213 0.054,-0.73641 0.1399,-1.36482 0.2637,-1.87504 5.5635,-39.5186 10.5866,-75.70117 12.5195,-91.16413 1.0962,-8.77014 -0.031,-20.33119 -2.4726,-33.1131 l 57.9843,55.66601 v 246.65879 c -4.9348,19.58291 -21.7238,38.71929 -49.9589,54.59723 -20.6513,11.61317 -46.871,20.84982 -76.4864,26.32922 -7.4997,2.91901 -16.1857,7.33819 -18.5351,12.81585 -2.1898,5.10561 -6.8896,14.55315 -11.1153,22.88103 -0.9292,4.10206 2.6503,5.66944 7.5977,6.00011 45.2872,-4.55162 86.1229,-16.86673 118.6074,-35.13437 10.9091,-6.13463 20.9674,-13.06485 29.8906,-20.6835 v 4.95197 l -20.6777,30.73367 c -4.4377,6.59741 -4.2438,15.12424 0.4902,21.52913 l 18.9747,25.66921 v 0.0638 l -0.043,-0.01 v 15.34528 c -42.3458,24.62665 -112.153,39.33061 -186.7227,39.3307 -2.1193,0 -4.2352,-0.0268 -6.3515,-0.0506 -2.1163,0.0238 -4.2323,0.0506 -6.3516,0.0506 -74.5697,-9e-5 -144.3767,-14.70405 -186.7227,-39.3307 v -15.34528 l -0.043,0.01 v -0.0638 l 18.9746,-25.66921 c 4.734,-6.40489 4.9281,-14.93172 0.4902,-21.52913 l -20.6777,-30.73367 v -4.95197 c 8.9232,7.61865 18.9815,14.54887 29.8906,20.6835 32.4845,18.26764 73.3202,30.58275 118.6074,35.13437 4.9474,-0.33067 8.5269,-1.89805 7.5977,-6.00011 -4.2257,-8.32788 -8.9254,-17.77542 -11.1152,-22.88103 -2.3494,-5.47766 -11.0355,-9.89684 -18.5352,-12.81585 -29.6154,-5.4794 -55.835,-14.71605 -76.4863,-26.32922 -28.2351,-15.87794 -45.0242,-35.01432 -49.959,-54.59723 V 367.41825 Z m 109.7442,7.31638 v 0 c 0.9232,9.89707 1.7341,23.28889 2.375,39.57446 1.3889,35.29458 2.1046,82.35242 2.4336,129.30795 0.4319,61.63536 0.2019,120.50401 -0.01,155.48716 l -18.6054,-16.81155 -29.1778,-271.15986 15.2715,-13.10836 c 4.2664,-0.28236 8.2044,-2.29952 10.8242,-5.54448 0,0 6.3976,-7.87808 13.9082,-15.08839 0.9866,-0.94718 1.978,-1.76775 2.9786,-2.65693 z m 53.1953,0 v 0 c 1.0006,0.88918 1.9919,1.70975 2.9785,2.65693 7.5106,7.21031 13.9082,15.08839 13.9082,15.08839 2.6198,3.24496 6.5579,5.26212 10.8243,5.54448 l 15.539,13.20773 -28.1035,265.24788 -1.3418,5.81261 -18.6055,16.81155 c -0.2115,-34.98315 -0.4411,-93.8518 -0.01,-155.48716 0.329,-46.95553 1.0447,-94.01337 2.4336,-129.30795 0.6409,-16.28557 1.4518,-29.67739 2.375,-39.57446 z m -219.668,504.25842 c 42.3458,24.62659 112.153,39.3306 186.7227,39.3307 2.1193,0 4.2352,-0.0269 6.3515,-0.0509 2.1163,0.024 4.2323,0.0509 6.3516,0.0509 74.5697,-10e-5 144.3768,-14.70411 186.7226,-39.3307 v 34.56066 c -42.3458,24.62665 -112.1529,39.33056 -186.7226,39.33066 -2.1193,0 -4.2353,-0.0269 -6.3516,-0.0509 -2.1163,0.024 -4.2322,0.0509 -6.3515,0.0509 -74.5697,-10e-5 -144.3769,-14.70401 -186.7227,-39.33066 z"
     sodipodi:nodetypes="scccccscccccccccccccccccccccscsccccccccscsccccccccccsccccccscccssssscsssssccccsccccccccccscccccccccccccscccscsccsccccccccscsccccccccsccscscccccsscccccscccsccccccssccscsccscscc" />
</svg>
