<?xml version="1.0" standalone="no"?>
<!DOCTYPE svg PUBLIC "-//W3C//DTD SVG 1.1//EN" "http://www.w3.org/Graphics/SVG/1.1/DTD/svg11.dtd" >
<svg xmlns="http://www.w3.org/2000/svg" xmlns:xlink="http://www.w3.org/1999/xlink" version="1.1" viewBox="-10 0 1024 1000">
   <path fill="currentColor"
d="M501.97 35.9561h-0.0117188c0.0195312 0 0.0410156 0.0166016 0.0625 0v0.0185547c2.86426 0.797852 5.79102 1.8877 8.6875 3.39844c16.4189 8.56445 30.4453 27.9834 36.8926 59.4512c3.78125 18.4531 28.1963 63.8389 44.2666 109.03
c8.03613 22.5957 14.2207 46.0439 13.1699 69.9424c-0.443359 10.0645 -2.6377 20.3184 -6.53711 30.1025c40.3701 4.08594 100.55 19.5195 143.93 72.1787c36.2295 43.9805 40.8281 96.8467 33.4873 139.771c-7.34277 42.9229 -23.6377 75.9043 -40.7158 94.4287
c-11.0488 11.9844 -37.0273 40.3457 -60.9385 70.001c-4.57617 5.67578 -9.07031 11.3975 -13.3604 17.04c12.6797 5.91797 23.7607 12.748 32.9785 20.9131c9.63574 8.53613 17.5811 19.3271 21.0732 31.709c0.176758 -0.698242 0.339844 -1.39648 0.46875 -2.09961
c-0.046875 1.4043 -0.0673828 2.44141 -0.0927734 3.5332c0.00878906 0.03125 0.0117188 0.0625 0.0214844 0.09375l0.015625 -0.0722656v0.139648c0.960938 3.87305 1.50391 7.88867 1.50391 12.0439c0 3.30176 -0.337891 6.51855 -0.955078 9.64453
c0.00878906 0.789062 0.0273438 1.33691 0.0302734 2.25781c0 2.00879 -0.202148 4.00098 -0.579102 5.97461v104.399l-0.552734 0.277344c-10.9004 40.8945 -101.521 72.9688 -212.79 74.123c-0.0195312 0 -0.0390625 -0.000976562 -0.0585938 0
c-111.27 -1.1543 -201.889 -33.2285 -212.79 -74.123l-0.552734 -0.277344v-104.399c-0.376953 -1.97363 -0.579102 -3.96582 -0.579102 -5.97461c0.00292969 -0.920898 0.0214844 -1.46875 0.0302734 -2.25781c-0.617188 -3.12598 -0.955078 -6.34277 -0.955078 -9.64453
c0 -4.1543 0.542969 -8.1709 1.50391 -12.0439v-0.139648l0.0166016 0.0722656c0.00683594 -0.03125 0.0117188 -0.0625 0.0205078 -0.0927734c-0.0253906 -1.09277 -0.0458984 -2.12891 -0.0927734 -3.53418c0.129883 0.703125 0.291992 1.40137 0.469727 2.09961
c3.49023 -12.3828 11.4365 -23.1729 21.0723 -31.709c9.21777 -8.16504 20.2998 -14.9951 32.9785 -20.9131c-4.29004 -5.64355 -8.78418 -11.3643 -13.3604 -17.04c-23.9102 -29.6553 -49.8896 -58.0156 -60.9385 -70.001
c-17.0791 -18.5244 -33.374 -51.5059 -40.7158 -94.4287c-7.34082 -42.9238 -2.74219 -95.79 33.4873 -139.771c43.3799 -52.6592 103.564 -68.0928 143.93 -72.1787c-3.89941 -9.7832 -6.09375 -20.0381 -6.53613 -30.1025
c-1.05176 -23.8984 5.13281 -47.3467 13.1689 -69.9424c16.0703 -45.1895 40.4854 -90.5752 44.2666 -109.03c6.44727 -31.4678 20.4736 -50.8857 36.8926 -59.4512c2.89648 -1.51074 5.82324 -2.60059 8.6875 -3.39844v-0.0185547zM502 112.924h0.000976562
c-8.38379 34.6719 -31.624 73.2188 -45.0205 110.891c-6.99219 19.6621 -11.0645 38.1816 -10.4609 51.8984c0.509766 11.5957 2.94141 19.1816 10.1328 26.1689c1.12695 0.52832 2.33398 1.05859 3.72949 1.58105c9.94043 3.72461 24.8584 6.57617 41.6191 7.15039
c16.7598 -0.574219 31.6797 -3.42578 41.6201 -7.15039c1.39551 -0.522461 2.60254 -1.05273 3.72949 -1.58105c7.19141 -6.9873 9.62305 -14.5732 10.1328 -26.1689c0.602539 -13.7168 -3.46875 -32.2373 -10.4609 -51.8984
c-13.3965 -37.6768 -36.6387 -76.2236 -45.0225 -110.891zM468.731 356.104v0s-26.6797 -6.19629 -65.1191 0.225586c-2.77832 0.381836 -5.62891 0.814453 -8.57324 1.33984c4.34473 3.31055 11.6611 7.4082 21.2031 10.9834
c20.7012 7.75684 51.4727 13.3799 85.7578 13.9883c34.2861 -0.609375 65.0566 -6.23145 85.7598 -13.9883c9.54102 -3.57422 16.8574 -7.67188 21.2031 -10.9834c-2.94531 -0.525391 -5.7959 -0.958008 -8.57324 -1.33984
c-38.4404 -6.42188 -65.1191 -0.225586 -65.1191 -0.225586c-31.582 5.73926 -37.127 5.88867 -66.5391 0zM347.052 372.763h-0.00390625c-17.4131 8.33203 -34.5186 20.332 -48.7354 37.5898c-13.7734 16.7197 -21.125 34.959 -24.1055 53.4707
c1.95996 4.75391 5.79785 9.96484 12.3252 15.7471c10.4434 9.25098 27.252 18.7939 48.7861 26.8613c41.7598 15.6465 100.989 26.0186 166.65 26.6348c0.0205078 0 0.0410156 -0.000976562 0.0625 0c65.6602 -0.616211 124.891 -10.9883 166.649 -26.6348
c21.5342 -8.06738 38.3438 -17.6113 48.7861 -26.8613c6.52734 -5.78223 10.3652 -10.9932 12.3252 -15.7471c-2.97949 -18.5117 -10.332 -36.751 -24.1045 -53.4707c-14.2178 -17.2568 -31.3232 -29.2578 -48.7354 -37.5898
c-3.54297 7.4873 -8.8457 13.9551 -14.6689 19.1143c-10.3975 9.20996 -23.127 15.8535 -37.8203 21.3594c-27.916 10.4609 -63.3174 16.4443 -102.43 17.0166v0.00195312h-0.0322266h-0.0302734v-0.00195312c-39.1094 -0.573242 -74.5117 -6.55566 -102.431 -17.0166
c-14.6924 -5.50488 -27.4219 -12.1484 -37.8193 -21.3594c-5.82422 -5.15918 -11.126 -11.627 -14.6689 -19.1143zM275.655 515.323h-0.00195312c6.34766 32.3193 23.1602 61.2803 28.1436 66.6855c11.1914 12.1396 37.8301 41.1729 62.999 72.3887
c7.35742 9.125 14.5801 18.4287 21.3125 27.6426c1.10938 2.33301 3.33301 7.11133 5.91211 12.9385c4.51465 10.1699 9.92773 23.1348 12.3809 32.1348c0.317383 1.16602 1.39648 2.1875 3.08984 3.08691c3.62305 2.96387 10.2422 6.80566 19.123 10.1328
c17.75 6.65039 44.0488 11.4902 73.3877 12.0908c29.3389 -0.600586 55.6396 -5.44043 73.3896 -12.0908c8.88086 -3.32715 15.501 -7.16797 19.123 -10.1328c1.69238 -0.899414 2.77148 -1.9209 3.08984 -3.08691c2.45215 -8.99902 7.86523 -21.9648 12.3809 -32.1348
c2.5791 -5.82617 4.80273 -10.6045 5.91211 -12.9385c6.73242 -9.21387 13.9551 -18.5176 21.3125 -27.6426c25.1689 -31.2158 51.8066 -60.249 62.999 -72.3887c4.98438 -5.40527 21.7959 -34.3662 28.1426 -66.6855c-13.2402 9.16797 -29.1924 17.0049 -47.4062 23.8301
c-47.1299 17.6602 -109.706 28.2607 -178.91 28.8584h-0.0625c-69.2002 -0.597656 -131.776 -11.1982 -178.91 -28.8584c-18.2139 -6.82422 -34.166 -14.6621 -47.4072 -23.8301zM366.625 738.503h0.000976562c-12.2686 5.2998 -21.7832 11.0918 -27.6592 16.2959
c-7.13965 6.3252 -8.33105 10.3145 -8.33105 12.7793s1.19141 6.4541 8.33105 12.7793c7.14062 6.32422 19.585 13.5273 35.9141 19.6455c31.3779 11.7578 76.751 19.8135 127.12 20.4268c50.374 -0.613281 95.748 -8.66895 127.13 -20.4268
c16.3291 -6.11816 28.7744 -13.3213 35.9141 -19.6455c7.13965 -6.3252 8.33203 -10.3145 8.33203 -12.7793s-1.19238 -6.45508 -8.33203 -12.7793c-5.875 -5.2041 -15.3896 -10.9961 -27.6592 -16.2959c-2.75586 8.78711 -8.41602 16.2656 -14.8037 21.9238
c-8.99902 7.97168 -20.0156 13.7217 -32.7314 18.4863c-23.9648 8.97949 -54.2959 14.1504 -87.8135 14.7178v0.00195312h-0.0322266h-0.0302734v-0.00195312c-33.5195 -0.567383 -63.8496 -5.73926 -87.8135 -14.7178
c-12.7158 -4.76367 -23.7334 -10.5156 -32.7314 -18.4863c-6.38867 -5.6582 -12.0488 -13.1367 -14.8047 -21.9238zM323.339 824.279l0.0126953 42.8457c38.29 22.1465 104.046 36.8623 178.63 37.6367c0.0205078 0.000976562 0.0419922 0 0.0625 0
c74.5801 -0.774414 140.334 -15.4902 178.63 -37.6367v-42.8457c-7.18652 4.15332 -15.3525 8.04785 -24.3594 11.6416c-3.84082 1.67871 -7.80957 3.28516 -11.916 4.82422c-38.04 14.25 -87.5889 22.6035 -142.36 23.1924v0.00195312h-0.0322266h-0.0302734v-0.00195312
c-54.7754 -0.588867 -104.324 -8.94141 -142.36 -23.1924c-4.10645 -1.53906 -8.0752 -3.14551 -11.916 -4.82422c-9.00684 -3.59375 -17.1729 -7.48828 -24.3604 -11.6416z" />
</svg>
